<?xml version="1.0" encoding="UTF-8" standalone="no"?>
<svg
   xmlns:dc="http://purl.org/dc/elements/1.1/"
   xmlns:cc="http://creativecommons.org/ns#"
   xmlns:rdf="http://www.w3.org/1999/02/22-rdf-syntax-ns#"
   xmlns:svg="http://www.w3.org/2000/svg"
   xmlns="http://www.w3.org/2000/svg"
   xmlns:sodipodi="http://sodipodi.sourceforge.net/DTD/sodipodi-0.dtd"
   xmlns:inkscape="http://www.inkscape.org/namespaces/inkscape"
   version="1.0"
   width="1270.000000pt"
   height="1200.000000pt"
   viewBox="0 0 1270.000000 1200.000000"
   preserveAspectRatio="xMidYMid meet"
   id="svg72"
   sodipodi:docname="OSG_front2.svg"
   inkscape:version="0.92.0 r15299">
  <defs
     id="defs76" />
  <sodipodi:namedview
     pagecolor="#ffffff"
     bordercolor="#666666"
     borderopacity="1"
     objecttolerance="10"
     gridtolerance="10"
     guidetolerance="10"
     inkscape:pageopacity="0"
     inkscape:pageshadow="2"
     inkscape:window-width="1920"
     inkscape:window-height="1017"
     id="namedview74"
     showgrid="false"
     inkscape:zoom="0.834386"
     inkscape:cx="980.95522"
     inkscape:cy="611.00172"
     inkscape:window-x="-8"
     inkscape:window-y="-8"
     inkscape:window-maximized="1"
     inkscape:current-layer="svg72" />
  <metadata
     id="metadata2">
Created by potrace 1.13, written by Peter Selinger 2001-2015
<rdf:RDF>
  <cc:Work
     rdf:about="">
    <dc:format>image/svg+xml</dc:format>
    <dc:type
       rdf:resource="http://purl.org/dc/dcmitype/StillImage" />
  </cc:Work>
</rdf:RDF>
</metadata>
  <path
     style="fill:#000000;stroke:none;stroke-width:0.1"
     inkscape:connector-curvature="0"
     id="path36"
     d="m 277,385.1 c 0,158 0.4,260.6 1,264.7 0.5,3.7 1.4,10.7 2,15.7 0.6,4.9 1.5,10.8 2,13 0.5,2.2 1.4,6.9 2.1,10.5 1.5,8.3 7.2,30.7 9.8,38.5 11.4,34.9 27.5,64.7 47.3,87.7 l 5.9,6.8 h -4.8 c -2.6,0 -12.7,-0.5 -22.3,-1 -33.3,-1.9 -133.8,-2.9 -216,-2.1 -45.4,0.4 -83.3,1.1 -84.2,1.5 -2.1,1 -3.1,5.2 -2,8.9 0.4,1.6 27.4,33.3 63.2,74.3 34.4,39.4 62.6,72.2 62.8,73 0.2,0.7 -22.5,28 -50.5,60.6 -27.9,32.5 -51.3,60.1 -52,61.2 -0.7,1.2 -1.2,3.4 -1.2,5.1 -0.1,6.4 -6.4,6 85.8,6.3 l 83.9,0.2 0.4,12.8 c 0.4,17.3 1.4,19.3 12.5,24.8 31.1,15.5 132.4,26.7 306.8,33.9 48.2,2 159,2 206.5,0 190,-7.9 291,-19.8 316.3,-37.2 5,-3.5 6.7,-9.3 6.7,-23.5 V 1110 h 82.3 c 64,0 82.8,-0.3 84.7,-1.3 3.1,-1.5 4,-7.6 1.6,-11.2 -0.8,-1.3 -8.6,-10.6 -17.3,-20.7 -27.4,-31.9 -44.2,-51.6 -65.4,-76.3 l -20.5,-24 13,-15.1 c 7.2,-8.3 35.6,-40.8 63.1,-72.3 27.5,-31.5 50.4,-58.5 50.9,-60.1 1.3,-4.2 0,-7.9 -3.2,-9.1 -1.8,-0.7 -43,-1.1 -128.2,-1.2 -118.9,-0.2 -146.2,0.3 -189,3 l -10.4,0.6 5.1,-5.1 c 5.3,-5.3 17.1,-21.3 23.5,-31.7 15.5,-25.5 28.8,-61 35.3,-94.5 3,-15.2 3.4,-17.7 4.4,-25 3.1,-22.7 3.2,-28.2 2.9,-102.3 l -0.3,-75.7 -4.5,4.2 c -15,13.8 -39.4,29.4 -70,44.7 -25,12.4 -38.2,15.8 -82.2,21 -4.9,0.6 -12.7,1.6 -17.5,2.1 -70.6,8.5 -115.4,23.8 -164,56.2 -5.6,3.7 -10.7,6.8 -11.2,6.8 -2.2,0 -1.9,-2.2 1.8,-12.7 8.2,-23.5 19.5,-41.7 36.9,-59.5 C 710,520.9 738,511 813,504 c 6.3,-0.6 15.6,-1.5 20.5,-2 l 20,-2 c 6.1,-0.6 14.2,-1.5 18,-2 3.9,-0.5 9,-1.2 11.5,-1.5 21.3,-2.8 27.2,-3.7 40.5,-6.5 2.2,-0.5 6.7,-1.4 10,-2.1 12.6,-2.6 28.4,-6.8 41,-11 6.5,-2.2 8.1,-2.8 13.8,-5.2 L 992,470 v -59.1 c 0,-55.1 -0.1,-59.1 -1.7,-57.8 -0.9,0.8 -4.4,3.9 -7.7,7 -8.3,7.8 -19.1,15.8 -27.6,20.7 -1.9,1.1 -6.6,3.9 -10.5,6.2 -11.2,6.9 -34.2,18.6 -44,22.4 -9.6,3.7 -24.7,7.7 -35.7,9.5 -14,2.3 -18.5,2.9 -45,6.2 -39.4,4.8 -61.7,9.4 -90.3,18.4 -14.5,4.6 -46.1,19 -60.1,27.2 -7.4,4.4 -21.1,13.2 -26,16.8 -2.7,2 -3.4,-0.8 -1.6,-6.7 3.20402,-9.54546 7.29093,-19.00016 10.5,-25.8 12,-25.3 35.9,-50.8 59.7,-63.7 21.9,-11.8 47.1,-17.2 110.5,-23.3 32.3,-3.2 58.1,-6 71,-8 15.9,-2.3 14.4,-2 44,-8.1 2.2,-0.4 5.8,-1.2 8,-1.8 3.7,-0.9 5.6,-1.4 15,-4.1 1.9,-0.6 5,-1.4 6.8,-1.9 7.8,-2.2 22.5,-7.8 24,-9.1 0.4,-0.3 0.6,-26.8 0.5,-58.8 l -0.3,-58.2 -5.5,5.1 c -8.6,7.9 -22.9,18.4 -35.7,26.2 -13.8,8.3 -43.3,23.5 -51.6,26.6 -15.8,5.8 -33.7,9.3 -69.2,13.6 -64.3,7.7 -100.2,17.4 -142.5,38.6 -13.8,6.9 -35,19.2 -40.7,23.5 -6.2,4.7 -7.1,2.9 -3.7,-7.3 17,-51.5 53,-87.1 100.4,-99.1 18.5,-4.7 39.3,-7.8 74,-11.1 50,-4.8 68.1,-7 93,-11.2 26.9,-4.6 44.9,-9 68,-16.8 l 13.5,-4.6 0.3,-37.3 L 992,127 H 634.5 277 Z m 701.8,-219.9 -0.3,25.1 -10.7,3.7 -10.8,3.7 V 179.8 162 H 634.5 312 l 0.3,240.7 0.3,240.8 2.1,13.5 c 9.2,57.5 26.7,99.9 55.8,135 31.5,37.9 81.3,78.1 143.5,115.8 8.5,5.1 16,9.8 16.5,10.4 0.7,0.7 -3.8,0.8 -14,0.4 -28.5,-1.2 -25.3,-0.3 -44,-12.7 -37.7,-25 -76.5,-55.4 -76.5,-59.9 0,-0.9 -0.7,-4 -1.5,-6.8 -1.9,-6.2 -3.8,-7.7 -14.7,-11.3 -7.7,-2.5 -8.1,-2.8 -16.9,-12.5 -17.2,-18.8 -28,-33.8 -38,-52.9 -17.9,-34 -28.4,-70.7 -33.4,-116.8 -1.3,-12 -1.5,-47.2 -1.5,-259.8 V 140 H 634.5 979 Z M 578,303.5 V 433 H 451 324 V 303.5 174 h 127 127 z m 99,-86.2 v 43.3 l -6.6,6.4 c -17.1,16.8 -31.1,40.2 -40,67 -7.39858,21.02187 -5.16162,40.07309 13.9,36.2 3.8,-0.8 17.7,-8.9 30.5,-17.9 l 2.2,-1.5 v 22 22 l -8.2,8.4 c -10.8,10.9 -20.2,24.4 -27.7,39.3 -7.2,14.4 -14,34.1 -14.9,43.3 -4.85396,28.36912 22.31056,18.10208 33.3,10.6 30.4,-20.5 59.1,-34.3 93,-44.6 l 14,-4.2 89.3,-0.3 89.2,-0.4 V 459 c 0,11.6 -0.1,12 -2.2,12.5 -41.9,9 -63.7,12.3 -116.8,17.5 -43.7,4.2 -62,6.6 -81.5,10.7 -43.3,9 -73.4,28.9 -95,62.8 -10.40025,18.55005 -39.29438,73.74904 -10.6,77.3 11.05579,0.59587 13.03762,-3.17779 22.2,-9.4 7.4,-4.9 14,-9.4 14.7,-9.8 0.9,-0.6 1.2,29.7 1.2,149.8 V 921 H 634.5 592 V 726.5 532 H 458 324 V 489.5 447 H 458 592 V 310.5 174 h 42.5 42.5 z m 268,-29.9 v 13.3 l -5.7,1.6 c -21.9,6.1 -59.8,12 -103.8,16.2 -51.1,4.8 -82,9.1 -99.7,13.5 -15.6,4 -31.9,10.7 -41.5,17.1 l -3.3,2.1 V 212.6 174 h 127 127 z m 33.8,99.8 -0.3,37.3 -10.8,3.7 -10.7,3.7 0.2,-33.6 0.3,-33.7 6.5,-4.4 c 3.6,-2.4 8,-5.7 9.8,-7.3 1.8,-1.6 3.7,-2.9 4.2,-2.9 0.7,0 0.9,13.5 0.8,37.2 z M 945,302.9 v 32.9 l -2.7,0.5 c -1.6,0.3 -10.3,2.1 -19.4,4.1 -25.7,5.5 -46.2,8.4 -88.4,12.5 -58.6,5.8 -78.6,8.5 -98.3,13.5 -18.3,4.7 -35.7,11.8 -42.2,17.2 l -3,2.6 0.2,-21.3 0.3,-21.4 11.1,-5.6 c 33.6,-16.8 69.9,-27 118.9,-33.3 53.5,-7 72.8,-10.7 89,-17.1 8.2,-3.3 29.1,-13.6 32,-15.9 1.1,-0.8 2.1,-1.6 2.3,-1.6 0.1,0 0.2,14.8 0.2,32.9 z m 32.3,156.2 c -1.8,1.6 -7.8,4 -16,6.5 l -4.3,1.3 V 433 399.1 l 3.2,-1.7 c 3.7,-1.9 16.2,-11.7 17.5,-13.6 0.4,-0.7 0.9,15.6 1.1,36.2 0.2,34.7 0.1,37.5 -1.5,39.1 z M 945,419 v 14 l -35.7,-0.1 c -19.7,0 -34.7,-0.4 -33.3,-0.9 1.4,-0.4 4.3,-1.2 6.5,-1.8 26.5,-7.1 28.3,-7.8 62.3,-25.1 0.1,0 0.2,6.2 0.2,13.9 z m 32.5,226.5 c -4.9,45.9 -15.5,82.9 -33.4,117 -10,19.1 -21.2,34.8 -38,53 -8.9,9.6 -9.2,9.9 -16.4,12 -11.8,3.4 -14.4,6 -16.1,16.6 -0.8,4.3 -4.4,8 -22.1,22 -16.3,13 -35.1,26.6 -54.9,39.8 l -16.5,10.9 -9.3,0.6 c -26.6,1.6 -33,1.8 -32.4,0.7 0.4,-0.6 3.7,-2.7 7.4,-4.8 12.8,-7.1 39.7,-24.4 57.7,-37.2 40.5,-28.6 72.4,-56.8 95,-84.1 24.9,-30.1 42.6,-68.6 51.5,-112 6,-29.6 6.3,-33 6.7,-91.8 l 0.5,-54.3 2.6,-1.6 c 6.8,-4.2 16.4,-10.9 17.5,-12.2 0.9,-1.1 1.3,11 1.5,54.5 0.2,45.8 0,58.6 -1.3,70.9 z M 578,733.5 V 921 h -6.9 c -8,0 -9.8,-0.8 -36.5,-16.8 C 455.2,856.9 394.7,805.4 365,759.9 347.8,733.5 333.8,695.6 328.1,659.5 324.8,638.3 324,624.5 324,584.2 V 546 H 451 578 Z M 944.7,591.7 c -0.5,48.5 -1,55 -6.2,80.9 -4.6,22.9 -13.6,48.8 -23.8,68.8 -26.3,51.6 -88.5,107.9 -178.7,161.8 -28.7,17.2 -27.6,16.6 -36.8,17.4 l -8.2,0.7 v -155 -154.9 l 14.8,-6.9 c 39.1,-18.1 64.2,-24.5 124.7,-32.1 19.8,-2.5 40.8,-5.4 46.8,-6.5 19.1,-3.5 36.2,-9.2 50.7,-16.9 4.2,-2.2 6.9,-2.9 11.3,-3 h 5.9 z M 291.5,834.1 c 54.5,1.7 79.4,4.5 83.5,9.4 1.1,1.4 1,1.9 -0.6,3.6 -3.4,3.3 -14.4,4.9 -46.9,6.4 -67.3,3.1 -87.1,5.5 -101,11.9 -7.4,3.4 -13.9,9 -15.6,13.3 -0.5,1.4 -0.9,45.3 -0.9,109.9 V 1096 h -71.1 -71 l 1.8,-2.3 c 1,-1.2 22.1,-25.9 46.8,-54.7 24.8,-28.9 46,-53.8 47.3,-55.4 2.4,-3.1 2.9,-8.4 1.1,-11.8 -0.7,-1.2 -8.9,-11 -18.3,-21.7 C 137.1,939.3 115.5,914.5 98.5,895 81.4,875.5 62.4,853.7 56.1,846.5 l -11.4,-13 58.4,-0.6 c 69.4,-0.6 145.5,-0.2 188.4,1.2 z m 892.3,-1.2 40.3,0.6 -18.8,21.5 c -64,73.1 -100.1,114.8 -101.1,116.7 -2.4,4.4 -1.5,7.9 4,14.5 7.6,9.1 88.6,103.8 91.6,107 l 2.6,2.8 H 1130.7 1059 V 987.2 878.3 l -2.7,-3.6 c -6,-7.6 -19.9,-13.6 -38,-16.1 -13.7,-2 -48.2,-4.4 -80.1,-5.6 -25.3,-1 -35,-2.1 -40.7,-4.4 -4.3,-1.8 -5.1,-3.3 -3,-5.6 4.6,-5.1 38.5,-8.3 104.5,-9.9 39.5,-0.9 130,-1 184.8,-0.2 z M 378,886.2 v 23.1 l -10.5,-0.6 c -14.6,-0.9 -53.7,-5.3 -74,-8.3 -30.6,-4.5 -53.4,-10.2 -58.9,-14.5 l -2.7,-2.1 2.2,-2.4 c 3.1,-3.3 9.4,-6 18,-7.8 7.9,-1.6 57.8,-5.1 87.1,-6.1 16.54382,-1.04943 34.75051,-3.33496 36.5,-3.9 2.99243,-0.96647 2.3,1.6 2.3,22.6 z m 523.5,-21.3 c 8.5,1.4 17.6,2 44.5,3.1 33.7,1.4 63.7,3.7 72.2,5.6 7.7,1.7 15.6,5.2 17.7,7.8 1.1,1.3 1.1,1.9 0,3.2 -4.2,5.1 -30.5,11.5 -68.9,16.8 -19.5,2.7 -65.5,7.6 -71.5,7.6 H 892 v -23.1 c 0,-21.5 0.1,-23 1.8,-22.5 0.9,0.3 4.4,0.9 7.7,1.5 z m -495.8,12 c 10.3,8.2 27,20.5 41.6,30.6 4.8,3.3 8.7,6.3 8.7,6.7 0,1.1 -2.3,1.1 -33.2,-0.9 L 395,911.6 v -21.3 c 0,-11.7 0.2,-21.3 0.5,-21.3 0.2,0 4.8,3.5 10.2,7.9 z M 874,890.3 v 21.3 l -31,1.8 c -17.1,1.1 -31.2,1.7 -31.5,1.5 -0.2,-0.2 4.5,-3.7 10.4,-7.7 12.2,-8.1 35.5,-25.4 44.6,-33 3.3,-2.8 6.3,-5.1 6.8,-5.1 0.4,-0.1 0.7,9.5 0.7,21.2 z m -627,16.6 c 47,11.4 137.7,20 278,26.1 57.2,2.5 152.3,2.7 204.5,0.5 127.3,-5.5 210.9,-12.2 265.5,-21.4 18.9,-3.2 36.7,-7.4 41.1,-9.7 1.5,-0.8 3.3,-1.4 3.9,-1.4 0.7,0 1,35 1,113.9 v 113.8 l -2.1,2.7 c -13.3,16.9 -116.9,28.8 -317.4,36.7 -45.6,1.8 -175.8,0.6 -228,-2 -128.6,-6.4 -198.7,-13.4 -239.6,-23.7 -11.9,-2.9 -18.5,-5.7 -22.1,-9.2 l -2.8,-2.6 V 1015.8 900.9 l 2.8,1.5 c 1.5,0.8 8.4,2.8 15.2,4.5 z"
     sodipodi:nodetypes="sccsccccsccccccccccccccccscsccccccscccccsccccccccccsccccccccccccsccccccccccccccccccccccccccccccccccccccsccccccccccccccccscccccsccccccccccccccccccccccccccccccscccccccscccccccccccccccccccccccccccccccccccsscscccccccccccccsscccccccccscccccsccccccccccccccccccccccscccscccccccccccccccccccccccccscccccccccccccccccccccccccccccccsccccccccssccccccscsccccsccsscsccccccscccccssccccccccccc" />
  <g
     aria-label="Grove City College"
     transform="matrix(0.74999999,0,0,0.74999999,-9.7744271,7.6827837e-7)"
     style="font-style:normal;font-variant:normal;font-weight:normal;font-stretch:normal;font-size:146.66667175px;line-height:25px;font-family:'Old English Text MT';-inkscape-font-specification:'Old English Text MT';letter-spacing:0px;word-spacing:0px;fill:#000000;fill-opacity:1;stroke:none;stroke-width:1px;stroke-linecap:butt;stroke-linejoin:miter;stroke-opacity:1"
     id="flowRoot86">
    <path
       d="m 365.90625,26.866612 1.35938,2.492188 -27.48959,20.390625 q 8.08073,0 16.46355,4.078126 8.45833,4.078125 12.76302,11.328125 4.30469,7.25 4.30469,15.179688 0,12.61198 -8.76042,24.317706 -8.6849,11.63021 -24.84636,19.1823 -16.08593,7.55208 -30.35937,7.55208 -13.66927,0 -24.9974,-6.11719 -11.2526,-6.11719 -16.6901,-15.33073 -5.36198,-9.21354 -5.36198,-20.315103 0,-12.460938 6.04166,-23.184897 6.04167,-10.723959 22.42969,-23.713542 l 30.51042,-24.242189 q 12.76302,6.192709 19.9375,8.231772 7.17448,2.039062 14.1224,2.039062 5.21093,0 10.57291,-1.888021 z m -56.1875,4.682292 -1.28385,1.283854 v 35.721356 l 35.34375,-26.583335 q -16.53906,-4.153646 -34.0599,-10.421875 z m -16.99219,13.895834 q -8.68489,8.911458 -12.23437,16.765625 -3.47396,7.854167 -3.47396,18.276043 0,8.382812 2.26562,14.802083 2.34115,6.419271 6.8724,12.385421 4.30469,-3.92709 5.4375,-6.64584 1.13281,-2.718747 1.13281,-10.119789 z m 29,38.213543 q 5.28646,3.625 9.66667,5.135417 4.38021,1.510416 9.66667,1.510416 4.83333,0 8.91146,-1.208333 4.07812,-1.208333 10.34635,-4.757813 -1.88802,-7.929688 -6.94792,-12.838542 -8.23177,-8.005208 -20.54166,-8.005208 -5.21094,0 -11.10157,2.039062 z m -3.32291,-16.614584 q -6.04167,2.869792 -9.96875,5.815104 v 12.687501 q 0,5.815104 -0.83073,7.854167 -0.83073,1.963541 -3.54948,4.153646 -1.66146,1.283854 -2.71875,2.114583 L 288.34636,110.5437 q 6.79687,7.17448 13.82031,10.64844 7.02344,3.39843 16.23698,3.92708 z m 3.32291,37.609373 q 9.44011,-4.984372 17.89844,-4.984372 8.15625,0 17.29427,4.531252 3.85157,-8.005211 3.85157,-15.255211 v -0.981771 q -6.79688,3.398438 -10.95052,4.531251 -4.15365,1.132812 -9.0625,1.132812 -4.6823,0 -9.44011,-1.434896 -4.75781,-1.434896 -9.59115,-4.229167 z m 0,20.39063 q 7.02344,-0.37761 11.47917,-1.96354 6.79688,-2.34115 12.83854,-6.79688 4.53125,-3.32291 9.21355,-9.21354 -9.13803,-3.70052 -16.16146,-3.70052 -8.53386,0 -17.3698,4.90885 z"
       style="font-style:normal;font-variant:normal;font-weight:normal;font-stretch:normal;font-size:154.66667175px;font-family:'Old English Text MT';-inkscape-font-specification:'Old English Text MT'"
       id="path57"
       inkscape:connector-curvature="0" />
    <path
       d="m 426.39844,50.882238 11.40365,13.669271 -11.40365,10.119792 -9.51562,-12.007813 -7.47657,6.796876 v 44.028646 l 8.60938,6.19271 7.77864,-6.19271 1.73698,2.41667 -19.33333,15.48177 q -6.19271,-5.51302 -10.42188,-7.92969 -4.15364,-2.41667 -9.13802,-3.77604 v -1.66146 q 3.32292,-2.34114 4.30469,-4.68229 Q 394,110.9213 394,104.19995 V 73.387447 q 0,-5.815104 -1.35937,-7.703125 -1.28386,-1.963542 -2.86979,-1.963542 -1.73698,0 -4.75782,3.020833 l -1.8125,-2.190104 15.9349,-13.669271 q 6.41927,4.908854 8.76042,8.533854 1.51041,2.265625 1.51041,6.26823 z"
       style="font-style:normal;font-variant:normal;font-weight:normal;font-stretch:normal;font-size:154.66667175px;font-family:'Old English Text MT';-inkscape-font-specification:'Old English Text MT'"
       id="path59"
       inkscape:connector-curvature="0" />
    <path
       d="m 500.40886,61.90828 v 56.48959 q -11.32813,4.60677 -16.38803,7.55208 -3.85156,2.1901 -7.40104,5.4375 -10.95052,-6.64583 -18.125,-9.21354 -5.4375,-1.96354 -12.30989,-2.26563 l -0.75521,-1.51041 q 2.86979,-2.41667 3.625,-4.38021 1.05729,-2.56771 1.05729,-8.6849 V 63.871822 q 13.82031,-4.606771 23.63802,-12.989584 10.72396,7.098959 26.65886,11.026042 z m -35.04167,49.16406 19.71094,8.08073 V 71.121822 q -9.28907,-4.304688 -13.14063,-5.664063 -2.71875,-0.981771 -6.57031,-1.661458 z"
       style="font-style:normal;font-variant:normal;font-weight:normal;font-stretch:normal;font-size:154.66667175px;font-family:'Old English Text MT';-inkscape-font-specification:'Old English Text MT'"
       id="path61"
       inkscape:connector-curvature="0" />
    <path
       d="m 534.84637,69.309322 23.18489,-18.427084 q 7.70313,6.041667 10.04427,10.497396 2.34115,4.380209 2.34115,11.403646 v 45.3125 q -6.49479,1.58594 -12.15886,4.53125 -5.58854,2.86979 -12.91406,8.76042 -8.23177,-6.49479 -15.17969,-9.13802 -6.94791,-2.64323 -15.55729,-2.86979 v -1.88802 q 2.86979,-1.73698 3.85156,-4.00261 1.0573,-2.34115 1.0573,-8.76042 V 70.97078 q 0,-2.643229 -0.52865,-4.153646 -0.52865,-1.510416 -2.94531,-4.682291 -2.41667,-3.247396 -3.39844,-5.815105 -0.90625,-2.567708 -0.90625,-5.815104 0,-5.966146 3.54948,-10.572917 3.625,-4.682292 13.59375,-10.119792 l 1.58594,2.039062 q -7.77865,5.664063 -7.77865,10.79948 0,1.888021 0.75521,3.247396 0.90625,1.8125 4.53125,5.739583 3.625,3.927084 5.36198,8.156251 1.28385,3.247396 1.51042,9.515625 z m 0,4.078125 v 36.627603 l 20.01302,8.98698 V 76.710364 q 0,-5.513021 -1.4349,-8.15625 -1.35937,-2.718751 -5.89062,-5.513021 z"
       style="font-style:normal;font-variant:normal;font-weight:normal;font-stretch:normal;font-size:154.66667175px;font-family:'Old English Text MT';-inkscape-font-specification:'Old English Text MT'"
       id="path63"
       inkscape:connector-curvature="0" />
    <path
       d="m 616.862,50.882238 21.29688,24.846355 -33.83334,23.713542 v 13.744795 l 17.52084,6.94791 11.85677,-8.08073 1.66146,2.26563 -24.46876,17.06771 q -7.47656,-4.00261 -12.30989,-5.73958 -4.83333,-1.73698 -13.74479,-3.625 v -1.88803 q 2.5677,-1.51041 3.39843,-3.70052 0.90625,-2.26562 0.90625,-9.66666 V 63.569738 q 7.09896,-2.567708 11.78125,-4.682291 3.39844,-1.585938 15.9349,-8.005209 z m -11.47917,8.684896 -1.05729,0.528646 v 34.210939 l 19.86198,-13.895834 z"
       style="font-style:normal;font-variant:normal;font-weight:normal;font-stretch:normal;font-size:154.66667175px;font-family:'Old English Text MT';-inkscape-font-specification:'Old English Text MT'"
       id="path65"
       inkscape:connector-curvature="0" />
    <path
       d="m 723.42188,27.923904 1.8125,2.114583 q -11.25261,7.627605 -16.76563,16.312501 -7.09896,11.177084 -7.09896,24.317709 0,15.934896 10.4974,29.453123 4.53125,-3.700518 5.4375,-6.192706 0.90625,-2.567708 0.90625,-13.895833 V 46.199946 l 32.32292,-26.960938 q 11.32812,4.455729 17.82291,5.815104 6.4948,1.283854 15.25521,1.283854 h 1.73698 l 1.20834,2.71875 -12.46094,11.932292 Q 761.48438,39.629633 745.625,31.775467 l 0.83073,86.244793 2.86979,0.0755 q 10.875,0 19.78646,-3.70052 8.98698,-3.70052 18.57813,-12.00781 l 2.26562,2.1901 q -7.02343,9.66667 -13.82031,15.02865 -6.72135,5.36198 -16.23698,8.60937 -9.51563,3.17188 -18.88021,3.17188 -13.89583,0 -26.20573,-6.72136 -12.23437,-6.72135 -19.18229,-19.25781 -6.94792,-12.536457 -6.94792,-25.828124 0,-16.388022 9.81771,-30.359376 7.70313,-10.950522 24.92188,-21.296876 z m 18.80468,3.398437 -8.83593,7.627605 v 34.437501 q 0,6.419271 -0.67969,8.533854 -0.75521,2.794271 -3.47396,5.966147 -5.51302,6.419271 -15.40625,14.651042 6.04167,6.72135 12.91406,10.34635 6.94792,3.54948 16.23698,4.75782 z"
       style="font-style:normal;font-variant:normal;font-weight:normal;font-stretch:normal;font-size:154.66667175px;font-family:'Old English Text MT';-inkscape-font-specification:'Old English Text MT'"
       id="path67"
       inkscape:connector-curvature="0" />
    <path
       d="m 817.97398,25.054112 h 9.59115 l -10.42188,16.312501 h -3.02083 z m -5.73958,25.828126 13.4427,11.101563 -5.96614,5.815104 v 41.083335 q 0,6.49479 1.20833,8.45833 1.20834,1.96355 2.49219,1.96355 0.90625,0 1.66146,-0.37761 1.05729,-0.52864 4.38021,-3.02083 l 1.8125,2.34114 -17.14323,13.14063 q -6.04167,-4.30469 -7.77865,-8.08073 -1.73698,-3.85156 -1.73698,-13.36719 V 67.798905 l -5.66406,-5.815104 z"
       style="font-style:normal;font-variant:normal;font-weight:normal;font-stretch:normal;font-size:154.66667175px;font-family:'Old English Text MT';-inkscape-font-specification:'Old English Text MT'"
       id="path69"
       inkscape:connector-curvature="0" />
    <path
       d="m 839.4219,59.18953 21.07031,-26.054688 h 2.1901 l -0.75521,20.84375 h 15.17969 v 8.533855 H 861.9271 v 50.825523 l 8.45834,6.26823 4.83333,-3.77604 1.88802,2.26562 -16.61458,13.29167 q -8.53386,-8.6849 -19.33334,-11.78125 v -1.51042 q 3.02084,-2.03906 4.00261,-4.22916 1.28385,-2.79428 1.28385,-8.08073 V 62.512447 h -7.02343 z"
       style="font-style:normal;font-variant:normal;font-weight:normal;font-stretch:normal;font-size:154.66667175px;font-family:'Old English Text MT';-inkscape-font-specification:'Old English Text MT'"
       id="path71"
       inkscape:connector-curvature="0" />
    <path
       d="M 883.75262,64.098384 899.612,50.882238 q 6.49479,4.380208 8.38281,7.627604 1.96354,3.247396 1.96354,8.911459 v 1.661458 l 22.88282,-18.200521 q 11.70573,12.309896 11.70573,26.356772 0,7.552083 -3.85157,15.104167 -3.85156,7.476563 -12.08333,14.273433 -8.23177,6.72136 -26.58333,17.67188 -8.00521,4.83333 -9.59115,6.11719 -3.39844,2.64323 -4.83333,5.13541 -1.05729,1.8125 -1.05729,4.07813 0,3.85156 3.77604,7.09896 3.85156,3.32292 10.11979,3.32292 4.53125,0 7.47656,-1.58594 1.4349,-0.75521 2.79427,-3.2474 1.35938,-2.41666 2.34115,-3.17187 0.98177,-0.75521 2.34114,-0.75521 1.51042,0 2.41667,0.83073 0.90625,0.83073 0.90625,2.1901 0,2.41667 -3.54948,4.75781 -5.4375,3.77605 -13.74479,3.77605 -8.6849,0 -13.36719,-4.15365 -4.68229,-4.07812 -4.68229,-9.74219 0,-5.58854 5.21094,-10.875 2.49219,-2.56771 3.09635,-3.625 1.66146,-2.86979 2.26563,-5.28646 0.60416,-2.49218 0.60416,-6.94791 V 76.106197 q 0,-7.552083 -1.73698,-10.270834 -1.35937,-2.114583 -2.94531,-2.114583 -1.28385,0 -3.32291,1.963542 -0.30209,0.302083 -0.98178,0.90625 z m 26.20573,8.458334 v 42.895832 q 10.64844,-7.70312 15.10417,-16.010415 4.53125,-8.382812 4.53125,-15.934896 0,-10.195313 -8.30729,-19.937501 z"
       style="font-style:normal;font-variant:normal;font-weight:normal;font-stretch:normal;font-size:154.66667175px;font-family:'Old English Text MT';-inkscape-font-specification:'Old English Text MT'"
       id="path73"
       inkscape:connector-curvature="0" />
    <path
       d="m 1032.1511,27.923904 1.8125,2.114583 q -11.2526,7.627605 -16.7657,16.312501 -7.0989,11.177084 -7.0989,24.317709 0,15.934896 10.4974,29.453123 4.5312,-3.700518 5.4375,-6.192706 0.9062,-2.567708 0.9062,-13.895833 V 46.199946 l 32.3229,-26.960938 q 11.3282,4.455729 17.823,5.815104 6.4948,1.283854 15.2552,1.283854 h 1.7369 l 1.2084,2.71875 -12.461,11.932292 q -12.6119,-1.359375 -28.4713,-9.213541 l 0.8307,86.244793 2.8698,0.0755 q 10.875,0 19.7865,-3.70052 8.9869,-3.70052 18.5781,-12.00781 l 2.2656,2.1901 q -7.0234,9.66667 -13.8203,15.02865 -6.7213,5.36198 -16.237,8.60937 -9.5156,3.17188 -18.8802,3.17188 -13.8958,0 -26.2057,-6.72136 -12.2344,-6.72135 -19.1823,-19.25781 -6.94792,-12.536457 -6.94792,-25.828124 0,-16.388022 9.81772,-30.359376 7.7031,-10.950522 24.9219,-21.296876 z m 18.8047,3.398437 -8.836,7.627605 v 34.437501 q 0,6.419271 -0.6797,8.533854 -0.7552,2.794271 -3.4739,5.966147 -5.5131,6.419271 -15.4063,14.651042 6.0417,6.72135 12.9141,10.34635 6.9479,3.54948 16.237,4.75782 z"
       style="font-style:normal;font-variant:normal;font-weight:normal;font-stretch:normal;font-size:154.66667175px;font-family:'Old English Text MT';-inkscape-font-specification:'Old English Text MT'"
       id="path75"
       inkscape:connector-curvature="0" />
    <path
       d="m 1161.3672,61.90828 v 56.48959 q -11.3281,4.60677 -16.388,7.55208 -3.8516,2.1901 -7.401,5.4375 -10.9506,-6.64583 -18.125,-9.21354 -5.4375,-1.96354 -12.3099,-2.26563 l -0.7552,-1.51041 q 2.8698,-2.41667 3.625,-4.38021 1.0573,-2.56771 1.0573,-8.6849 V 63.871822 q 13.8203,-4.606771 23.638,-12.989584 10.7239,7.098959 26.6588,11.026042 z m -35.0416,49.16406 19.7109,8.08073 V 71.121822 q -9.2891,-4.304688 -13.1406,-5.664063 -2.7188,-0.981771 -6.5703,-1.661458 z"
       style="font-style:normal;font-variant:normal;font-weight:normal;font-stretch:normal;font-size:154.66667175px;font-family:'Old English Text MT';-inkscape-font-specification:'Old English Text MT'"
       id="path77"
       inkscape:connector-curvature="0" />
    <path
       d="m 1208.4922,23.166091 v 1.963542 q -5.9661,3.096354 -8.4583,7.627604 -2.4167,4.45573 -2.4167,13.593751 v 67.138022 l 8.6094,6.41927 3.3229,-2.71875 1.888,2.71875 -15.1041,11.47917 q -6.8724,-5.96615 -10.2709,-7.92969 -3.3984,-1.96354 -8.987,-3.54948 v -1.66146 q 2.1146,-1.28385 3.2474,-3.24739 1.2084,-1.96354 1.6615,-4.60677 0.151,-0.90625 0.2266,-9.0625 V 47.40828 q 0,-6.872397 -0.5287,-9.515626 -0.5286,-2.71875 -2.1146,-5.135417 -1.5859,-2.492187 -5.362,-5.513021 l 1.2084,-1.510416 q 6.8724,1.963541 12.3099,8.005208 5.664,-5.966146 10.1953,-8.15625 4.6068,-2.190104 10.5729,-2.416667 z"
       style="font-style:normal;font-variant:normal;font-weight:normal;font-stretch:normal;font-size:154.66667175px;font-family:'Old English Text MT';-inkscape-font-specification:'Old English Text MT'"
       id="path79"
       inkscape:connector-curvature="0" />
    <path
       d="m 1251.9922,23.166091 v 1.963542 q -5.9661,3.096354 -8.4583,7.627604 -2.4167,4.45573 -2.4167,13.593751 v 67.138022 l 8.6094,6.41927 3.3229,-2.71875 1.888,2.71875 -15.1041,11.47917 q -6.8724,-5.96615 -10.2709,-7.92969 -3.3984,-1.96354 -8.987,-3.54948 v -1.66146 q 2.1146,-1.28385 3.2474,-3.24739 1.2084,-1.96354 1.6615,-4.60677 0.151,-0.90625 0.2266,-9.0625 V 47.40828 q 0,-6.872397 -0.5287,-9.515626 -0.5286,-2.71875 -2.1146,-5.135417 -1.5859,-2.492187 -5.362,-5.513021 l 1.2084,-1.510416 q 6.8724,1.963541 12.3099,8.005208 5.664,-5.966146 10.1953,-8.15625 4.6068,-2.190104 10.5729,-2.416667 z"
       style="font-style:normal;font-variant:normal;font-weight:normal;font-stretch:normal;font-size:154.66667175px;font-family:'Old English Text MT';-inkscape-font-specification:'Old English Text MT'"
       id="path81"
       inkscape:connector-curvature="0" />
    <path
       d="m 1295.6433,50.882238 21.2968,24.846355 -33.8333,23.713542 v 13.744795 l 17.5208,6.94791 11.8568,-8.08073 1.6615,2.26563 -24.4688,17.06771 q -7.4766,-4.00261 -12.3099,-5.73958 -4.8333,-1.73698 -13.7448,-3.625 v -1.88803 q 2.5677,-1.51041 3.3985,-3.70052 0.9062,-2.26562 0.9062,-9.66666 V 63.569738 q 7.099,-2.567708 11.7813,-4.682291 3.3984,-1.585938 15.9349,-8.005209 z m -11.4792,8.684896 -1.0573,0.528646 v 34.210939 l 19.862,-13.895834 z"
       style="font-style:normal;font-variant:normal;font-weight:normal;font-stretch:normal;font-size:154.66667175px;font-family:'Old English Text MT';-inkscape-font-specification:'Old English Text MT'"
       id="path83"
       inkscape:connector-curvature="0" />
    <path
       d="m 1357.3438,50.882238 23.487,11.026042 14.0468,-7.098959 v 16.992188 l -13.5937,-2.643229 v 34.28646 q 0,8.30729 0.9818,11.2526 1.2838,3.85157 5.3619,8.91146 6.5704,8.38282 6.5704,12.00782 0,3.625 -3.474,6.94791 -3.3984,3.32292 -18.276,10.27084 -5.0599,-1.8125 -9.6667,-2.71875 -4.6068,-0.83073 -8.7604,-0.83073 -9.9688,0 -23.0339,3.54948 l -1.0573,-2.56771 17.8229,-20.84375 -17.8229,-12.83854 V 61.90828 q 14.9532,-3.171875 27.4141,-11.026042 z m 8.6094,18.125001 -20.6927,-7.098959 v 49.46615 l 11.2526,8.15625 9.4401,-11.32813 z m -22.7318,70.158861 q 9.8177,-1.58594 15.8594,-1.58594 5.4375,0 10.9505,1.43489 5.5885,1.4349 11.2526,4.38021 l 3.0964,-1.96354 q -10.1954,-9.51563 -13.8204,-15.40625 -3.625,-5.89063 -4.6067,-12.83854 z"
       style="font-style:normal;font-variant:normal;font-weight:normal;font-stretch:normal;font-size:154.66667175px;font-family:'Old English Text MT';-inkscape-font-specification:'Old English Text MT'"
       id="path85"
       inkscape:connector-curvature="0" />
    <path
       d="m 1435.8099,50.882238 21.2969,24.846355 -33.8333,23.713542 v 13.744795 l 17.5208,6.94791 11.8568,-8.08073 1.6614,2.26563 -24.4687,17.06771 q -7.4766,-4.00261 -12.3099,-5.73958 -4.8333,-1.73698 -13.7448,-3.625 v -1.88803 q 2.5677,-1.51041 3.3984,-3.70052 0.9063,-2.26562 0.9063,-9.66666 V 63.569738 q 7.0989,-2.567708 11.7812,-4.682291 3.3985,-1.585938 15.9349,-8.005209 z m -11.4791,8.684896 -1.0573,0.528646 v 34.210939 l 19.862,-13.895834 z"
       style="font-style:normal;font-variant:normal;font-weight:normal;font-stretch:normal;font-size:154.66667175px;font-family:'Old English Text MT';-inkscape-font-specification:'Old English Text MT'"
       id="path87"
       inkscape:connector-curvature="0" />
  </g>
  <g
     aria-label="Order of St."
     transform="matrix(0.74999999,0,0,0.74999999,147.0918,932.61194)"
     style="font-style:normal;font-variant:normal;font-weight:normal;font-stretch:normal;font-size:146.66667175px;line-height:25px;font-family:'Old English Text MT';-inkscape-font-specification:'Old English Text MT';letter-spacing:0px;word-spacing:0px;fill:#000000;fill-opacity:1;stroke:none;stroke-width:1px;stroke-linecap:butt;stroke-linejoin:miter;stroke-opacity:1"
     id="flowRoot86-2">
    <path
       d="m 323.53906,18.483799 q 13.14063,1.359375 20.54167,3.776042 11.17709,3.549479 19.5599,10.119792 8.45833,6.494792 13.14062,15.406251 4.75782,8.911458 4.75782,19.333334 0,9.666667 -4.98438,19.03125 -4.98437,9.364584 -17.14323,21.070312 -12.08333,11.70573 -24.39323,17.97396 -12.30989,6.19271 -24.09114,6.19271 -12.61198,0 -24.39323,-6.26823 -11.78126,-6.26823 -18.20053,-17.21875 -6.41927,-11.026043 -6.41927,-24.31771 0,-7.627605 1.58594,-14.651042 1.58594,-7.098959 5.51302,-16.388022 7.47656,-3.700521 17.52084,-10.195312 5.36197,-3.54948 27.11198,-17.218751 4.3802,-2.71875 9.89322,-6.645834 z m -5.73958,15.028647 q -5.13542,-0.302084 -10.11979,-0.453125 v 44.632814 q 0,7.25 -0.98177,10.119792 -0.98177,2.869791 -3.625,5.966146 l -13.97136,13.442707 q 7.09896,6.04167 13.36719,8.60938 6.34375,2.49218 15.33073,3.09635 z m 3.2474,20.164063 q 5.4375,4.682292 10.27083,6.796875 4.90886,2.039063 10.64844,2.039063 5.28646,0 9.74219,-2.039063 4.53125,-2.114583 9.51562,-6.796875 -4.30469,-5.588542 -8.00521,-8.307292 -6.79687,-4.908854 -14.65104,-7.703125 -7.77865,-2.794271 -17.52083,-3.927084 z M 292.19792,42.95255 q -6.41927,4.757813 -9.21354,8.005209 -3.70053,4.304687 -6.19271,10.497396 -2.49219,6.192709 -2.49219,13.59375 0,16.010418 12.3099,29.830735 3.47395,-3.2474 4.53125,-6.419275 1.05729,-3.247396 1.05729,-12.61198 z m 28.84896,42.216147 q 5.36198,-5.286458 9.96875,-7.401041 4.68229,-2.114584 10.79948,-2.114584 6.41927,0 11.55468,2.265625 5.13542,2.265625 11.02605,7.854167 2.03906,-7.476563 2.03906,-12.989584 0,-5.059896 -0.75521,-8.835937 -0.60417,-2.794271 -2.49219,-6.947917 -6.57031,5.286458 -11.40364,7.25 -4.83334,1.888021 -10.72396,1.888021 -5.36198,0 -9.81771,-1.736979 -4.45573,-1.8125 -10.19531,-6.419271 z m 0,33.757813 q 9.51562,-0.52864 15.48177,-3.09635 9.0625,-3.85157 15.70833,-10.57292 6.64584,-6.796875 10.95052,-16.388022 -10.42187,-9.817708 -21.29687,-9.817708 -6.34375,0 -12.08334,3.398437 -4.22916,2.416667 -8.76041,8.156251 z"
       style="font-style:normal;font-variant:normal;font-weight:normal;font-stretch:normal;font-size:154.66667175px;font-family:'Old English Text MT';-inkscape-font-specification:'Old English Text MT'"
       id="path22"
       inkscape:connector-curvature="0" />
    <path
       d="m 433.95053,50.882238 11.40364,13.669271 -11.40364,10.119792 -9.51563,-12.007813 -7.47656,6.796876 v 44.028646 l 8.60937,6.19271 7.77865,-6.19271 1.73698,2.41667 -19.33333,15.48177 q -6.19271,-5.51302 -10.42188,-7.92969 -4.15365,-2.41667 -9.13802,-3.77604 v -1.66146 q 3.32292,-2.34114 4.30469,-4.68229 1.05729,-2.41667 1.05729,-9.13802 V 73.387447 q 0,-5.815104 -1.35938,-7.703125 -1.28385,-1.963542 -2.86979,-1.963542 -1.73698,0 -4.75781,3.020833 l -1.8125,-2.190104 15.9349,-13.669271 q 6.41927,4.908854 8.76041,8.533854 1.51042,2.265625 1.51042,6.26823 z"
       style="font-style:normal;font-variant:normal;font-weight:normal;font-stretch:normal;font-size:154.66667175px;font-family:'Old English Text MT';-inkscape-font-specification:'Old English Text MT'"
       id="path24"
       inkscape:connector-curvature="0" />
    <path
       d="m 451.92449,25.129633 51.27865,35.26823 q 1.20833,-2.794271 2.64323,-4.229167 1.51041,-1.434895 4.53125,-2.71875 v 3.096355 q -1.51042,2.039062 -1.96355,3.700521 -0.45312,1.661458 -0.45312,6.796875 v 50.825523 q -9.59115,3.625 -14.27344,6.34375 -4.68229,2.64323 -10.11979,7.17448 -8.91146,-5.81511 -15.78386,-8.45833 -6.87239,-2.64323 -14.80208,-3.625 v -1.4349 q 2.71875,-2.34115 3.47396,-4.68229 0.83073,-2.41667 0.83073,-9.89323 V 63.72078 q 10.34635,-2.869792 14.65104,-6.494792 L 451.92449,43.556717 Z M 492.5547,71.348384 477.07293,60.624426 q -2.11459,1.736979 -4.30469,3.020833 v 46.671881 l 19.78646,8.76041 z"
       style="font-style:normal;font-variant:normal;font-weight:normal;font-stretch:normal;font-size:154.66667175px;font-family:'Old English Text MT';-inkscape-font-specification:'Old English Text MT'"
       id="path26"
       inkscape:connector-curvature="0" />
    <path
       d="m 555.237,50.882238 21.29688,24.846355 -33.83334,23.713542 v 13.744795 l 17.52084,6.94791 11.85677,-8.08073 1.66146,2.26563 -24.46876,17.06771 q -7.47656,-4.00261 -12.30989,-5.73958 -4.83333,-1.73698 -13.74479,-3.625 v -1.88803 q 2.5677,-1.51041 3.39843,-3.70052 0.90625,-2.26562 0.90625,-9.66666 V 63.569738 q 7.09896,-2.567708 11.78125,-4.682291 3.39844,-1.585938 15.9349,-8.005209 z m -11.47917,8.684896 -1.05729,0.528646 v 34.210939 l 19.86198,-13.895834 z"
       style="font-style:normal;font-variant:normal;font-weight:normal;font-stretch:normal;font-size:154.66667175px;font-family:'Old English Text MT';-inkscape-font-specification:'Old English Text MT'"
       id="path28"
       inkscape:connector-curvature="0" />
    <path
       d="m 625.77345,50.882238 11.40365,13.669271 -11.40365,10.119792 -9.51563,-12.007813 -7.47656,6.796876 v 44.028646 l 8.60938,6.19271 7.77864,-6.19271 1.73698,2.41667 -19.33333,15.48177 q -6.19271,-5.51302 -10.42188,-7.92969 -4.15364,-2.41667 -9.13802,-3.77604 v -1.66146 q 3.32292,-2.34114 4.30469,-4.68229 1.05729,-2.41667 1.05729,-9.13802 V 73.387447 q 0,-5.815104 -1.35937,-7.703125 -1.28386,-1.963542 -2.8698,-1.963542 -1.73698,0 -4.75781,3.020833 l -1.8125,-2.190104 15.9349,-13.669271 q 6.41927,4.908854 8.76041,8.533854 1.51042,2.265625 1.51042,6.26823 z"
       style="font-style:normal;font-variant:normal;font-weight:normal;font-stretch:normal;font-size:154.66667175px;font-family:'Old English Text MT';-inkscape-font-specification:'Old English Text MT'"
       id="path30"
       inkscape:connector-curvature="0" />
    <path
       d="m 739.35679,61.90828 v 56.48959 q -11.32812,4.60677 -16.38802,7.55208 -3.85156,2.1901 -7.40104,5.4375 -10.95052,-6.64583 -18.125,-9.21354 -5.4375,-1.96354 -12.3099,-2.26563 l -0.75521,-1.51041 q 2.8698,-2.41667 3.625,-4.38021 1.0573,-2.56771 1.0573,-8.6849 V 63.871822 q 13.82031,-4.606771 23.63802,-12.989584 10.72396,7.098959 26.65885,11.026042 z m -35.04166,49.16406 19.71093,8.08073 V 71.121822 q -9.28906,-4.304688 -13.14062,-5.664063 -2.71875,-0.981771 -6.57031,-1.661458 z"
       style="font-style:normal;font-variant:normal;font-weight:normal;font-stretch:normal;font-size:154.66667175px;font-family:'Old English Text MT';-inkscape-font-specification:'Old English Text MT'"
       id="path32"
       inkscape:connector-curvature="0" />
    <path
       d="m 789.65365,26.791091 -2.34115,12.61198 -13.82031,-3.247396 v 18.200521 h 11.70573 v 8.458334 h -11.70573 v 50.67448 l 8.53385,6.41927 5.89063,-4.75781 1.73698,2.11458 -17.52084,14.1224 q -9.28906,-8.45833 -19.10677,-11.47917 l -0.45312,-1.8125 q 2.71875,-1.73698 3.77604,-3.625 1.8125,-3.09635 1.8125,-7.47656 V 62.81453 h -7.09896 v -8.458334 h 7.09896 V 36.155675 q 11.32812,-7.703125 17.06771,-12.989584 z"
       style="font-style:normal;font-variant:normal;font-weight:normal;font-stretch:normal;font-size:154.66667175px;font-family:'Old English Text MT';-inkscape-font-specification:'Old English Text MT'"
       id="path34"
       inkscape:connector-curvature="0" />
    <path
       d="m 880.20315,18.483799 34.21094,11.403647 2.49218,-4.45573 q 1.35938,-2.416666 1.88802,-2.945312 0.60417,-0.604167 1.35938,-0.604167 0.75521,0 1.20833,0.528646 0.52865,0.528646 0.52865,1.208333 0,1.057292 -1.8125,4.153646 l -15.9349,27.565105 12.46094,-0.453125 q 5.89062,-0.226562 13.66927,1.661459 7.85417,1.888021 13.44271,5.890625 5.66406,3.927083 8.83594,9.364583 3.24739,5.36198 3.24739,11.856772 0,11.932292 -10.04427,23.486979 -9.96875,11.47917 -35.57031,24.24219 -8.83594,-3.625 -20.54167,-7.62761 -21.59896,10.34636 -35.26823,10.34636 -9.74219,0 -15.02865,-4.22917 -5.21093,-4.30469 -5.21093,-9.89323 0,-5.96614 6.34375,-10.875 6.34375,-4.98437 18.80469,-4.98437 4.90885,0 12.23437,1.05729 l 5.66406,-10.270835 -10.64843,0.453125 q -3.92709,0.07552 -10.57292,-1.057291 -6.64583,-1.208334 -10.95052,-3.851563 -4.22917,-2.643229 -6.34375,-6.494792 -2.11459,-3.851563 -2.11459,-8.080729 0,-6.721355 4.75782,-11.932292 3.02083,-3.322917 9.96875,-5.966146 l -0.0755,-0.90625 q 0,-7.023438 6.1927,-16.085939 6.26823,-9.138021 22.8073,-22.505209 z m 27.33854,23.48698 q -11.85677,-5.890625 -18.50261,-7.854167 -6.64583,-2.039062 -11.70572,-2.039062 -7.09896,0 -11.55469,4.002604 -4.45573,4.002604 -4.45573,9.364584 0,5.286458 3.77604,8.684896 3.85156,3.398438 11.55469,3.398438 5.13541,0 23.10937,-1.888021 z m -16.08594,28.01823 q -9.74219,1.208334 -18.88021,1.208334 -10.27083,0 -14.57552,-2.416667 -4.30469,-2.416667 -6.41927,-7.552084 -5.4375,3.473959 -5.4375,8.609376 0,4.682292 4.22917,7.703125 5.58854,3.927083 19.10677,3.927083 6.26823,0 15.93489,-0.830729 z m -1.8125,10.346355 q 18.04948,-2.039063 25.07292,-2.039063 9.59115,0 14.65104,4.380209 5.0599,4.304687 5.0599,10.346354 0,5.286459 -4.98438,10.270836 -4.90885,4.98437 -20.76823,11.85677 l 14.95313,4.60677 q 9.89323,-6.11719 15.25521,-13.21615 5.36198,-7.098955 5.36198,-15.632809 0,-5.588542 -3.39844,-10.950521 -3.32292,-5.4375 -10.27084,-8.609376 -6.94791,-3.247395 -16.01041,-3.247395 -7.32552,0 -18.72917,1.510416 z m -14.65104,25.450526 q 7.47656,1.51041 12.15885,2.79427 4.75782,1.28385 16.84115,5.13541 16.76563,-7.85416 16.76563,-15.63281 0,-2.416666 -2.19011,-4.380208 -2.11458,-1.963542 -5.4375,-1.963542 -4.07812,0 -10.04427,0.90625 -16.61458,2.265625 -21.82552,2.265625 z m 9.59115,16.38802 q -19.33334,-5.81511 -31.34115,-5.81511 -6.19271,0 -9.81771,2.71875 -2.49219,1.8125 -2.49219,4.45573 0,2.79427 2.49219,4.45573 3.92708,2.71875 11.40365,2.71875 11.47916,0 29.75521,-8.53385 z"
       style="font-style:normal;font-variant:normal;font-weight:normal;font-stretch:normal;font-size:154.66667175px;font-family:'Old English Text MT';-inkscape-font-specification:'Old English Text MT'"
       id="path37"
       inkscape:connector-curvature="0" />
    <path
       d="m 965.69271,59.18953 21.07031,-26.054688 h 2.19011 l -0.75521,20.84375 h 15.17968 v 8.533855 h -15.17968 v 50.825523 l 8.45833,6.26823 4.83335,-3.77604 1.888,2.26562 -16.61458,13.29167 q -8.53385,-8.6849 -19.33333,-11.78125 v -1.51042 q 3.02083,-2.03906 4.0026,-4.22916 1.28386,-2.79428 1.28386,-8.08073 V 62.512447 h -7.02344 z"
       style="font-style:normal;font-variant:normal;font-weight:normal;font-stretch:normal;font-size:154.66667175px;font-family:'Old English Text MT';-inkscape-font-specification:'Old English Text MT'"
       id="path39"
       inkscape:connector-curvature="0" />
    <path
       d="m 1027.6198,131.38745 -11.4792,-11.47917 11.4792,-11.55469 11.5547,11.55469 z"
       style="font-style:normal;font-variant:normal;font-weight:normal;font-stretch:normal;font-size:154.66667175px;font-family:'Old English Text MT';-inkscape-font-specification:'Old English Text MT'"
       id="path41"
       inkscape:connector-curvature="0" />
  </g>
  <g
     aria-label="George"
     transform="matrix(0.74999999,0,0,0.74999999,270.70996,1042.2734)"
     style="font-style:normal;font-variant:normal;font-weight:normal;font-stretch:normal;font-size:146.66667175px;line-height:25px;font-family:'Old English Text MT';-inkscape-font-specification:'Old English Text MT';letter-spacing:0px;word-spacing:0px;fill:#000000;fill-opacity:1;stroke:none;stroke-width:1px;stroke-linecap:butt;stroke-linejoin:miter;stroke-opacity:1"
     id="flowRoot86-3">
    <path
       d="m 365.90625,26.866612 1.35938,2.492188 -27.48959,20.390625 q 8.08073,0 16.46355,4.078126 8.45833,4.078125 12.76302,11.328125 4.30469,7.25 4.30469,15.179688 0,12.61198 -8.76042,24.317706 -8.6849,11.63021 -24.84636,19.1823 -16.08593,7.55208 -30.35937,7.55208 -13.66927,0 -24.9974,-6.11719 -11.2526,-6.11719 -16.6901,-15.33073 -5.36198,-9.21354 -5.36198,-20.315103 0,-12.460938 6.04166,-23.184897 6.04167,-10.723959 22.42969,-23.713542 l 30.51042,-24.242189 q 12.76302,6.192709 19.9375,8.231772 7.17448,2.039062 14.1224,2.039062 5.21093,0 10.57291,-1.888021 z m -56.1875,4.682292 -1.28385,1.283854 v 35.721356 l 35.34375,-26.583335 q -16.53906,-4.153646 -34.0599,-10.421875 z m -16.99219,13.895834 q -8.68489,8.911458 -12.23437,16.765625 -3.47396,7.854167 -3.47396,18.276043 0,8.382812 2.26562,14.802083 2.34115,6.419271 6.8724,12.385421 4.30469,-3.92709 5.4375,-6.64584 1.13281,-2.718747 1.13281,-10.119789 z m 29,38.213543 q 5.28646,3.625 9.66667,5.135417 4.38021,1.510416 9.66667,1.510416 4.83333,0 8.91146,-1.208333 4.07812,-1.208333 10.34635,-4.757813 -1.88802,-7.929688 -6.94792,-12.838542 -8.23177,-8.005208 -20.54166,-8.005208 -5.21094,0 -11.10157,2.039062 z m -3.32291,-16.614584 q -6.04167,2.869792 -9.96875,5.815104 v 12.687501 q 0,5.815104 -0.83073,7.854167 -0.83073,1.963541 -3.54948,4.153646 -1.66146,1.283854 -2.71875,2.114583 L 288.34636,110.5437 q 6.79687,7.17448 13.82031,10.64844 7.02344,3.39843 16.23698,3.92708 z m 3.32291,37.609373 q 9.44011,-4.984372 17.89844,-4.984372 8.15625,0 17.29427,4.531252 3.85157,-8.005211 3.85157,-15.255211 v -0.981771 q -6.79688,3.398438 -10.95052,4.531251 -4.15365,1.132812 -9.0625,1.132812 -4.6823,0 -9.44011,-1.434896 -4.75781,-1.434896 -9.59115,-4.229167 z m 0,20.39063 q 7.02344,-0.37761 11.47917,-1.96354 6.79688,-2.34115 12.83854,-6.79688 4.53125,-3.32291 9.21355,-9.21354 -9.13803,-3.70052 -16.16146,-3.70052 -8.53386,0 -17.3698,4.90885 z"
       style="font-style:normal;font-variant:normal;font-weight:normal;font-stretch:normal;font-size:154.66667175px;font-family:'Old English Text MT';-inkscape-font-specification:'Old English Text MT'"
       id="path44"
       inkscape:connector-curvature="0" />
    <path
       d="m 417.1849,50.882238 21.29688,24.846355 -33.83334,23.713542 v 13.744795 l 17.52083,6.94791 11.85678,-8.08073 1.66145,2.26563 -24.46875,17.06771 q -7.47656,-4.00261 -12.30989,-5.73958 -4.83334,-1.73698 -13.74479,-3.625 v -1.88803 q 2.5677,-1.51041 3.39843,-3.70052 0.90625,-2.26562 0.90625,-9.66666 V 63.569738 q 7.09896,-2.567708 11.78125,-4.682291 3.39844,-1.585938 15.9349,-8.005209 z m -11.47917,8.684896 -1.05729,0.528646 v 34.210939 l 19.86198,-13.895834 z"
       style="font-style:normal;font-variant:normal;font-weight:normal;font-stretch:normal;font-size:154.66667175px;font-family:'Old English Text MT';-inkscape-font-specification:'Old English Text MT'"
       id="path46"
       inkscape:connector-curvature="0" />
    <path
       d="m 500.40886,61.90828 v 56.48959 q -11.32813,4.60677 -16.38803,7.55208 -3.85156,2.1901 -7.40104,5.4375 -10.95052,-6.64583 -18.125,-9.21354 -5.4375,-1.96354 -12.30989,-2.26563 l -0.75521,-1.51041 q 2.86979,-2.41667 3.625,-4.38021 1.05729,-2.56771 1.05729,-8.6849 V 63.871822 q 13.82031,-4.606771 23.63802,-12.989584 10.72396,7.098959 26.65886,11.026042 z m -35.04167,49.16406 19.71094,8.08073 V 71.121822 q -9.28907,-4.304688 -13.14063,-5.664063 -2.71875,-0.981771 -6.57031,-1.661458 z"
       style="font-style:normal;font-variant:normal;font-weight:normal;font-stretch:normal;font-size:154.66667175px;font-family:'Old English Text MT';-inkscape-font-specification:'Old English Text MT'"
       id="path48"
       inkscape:connector-curvature="0" />
    <path
       d="m 556.89845,50.882238 11.40365,13.669271 -11.40365,10.119792 -9.51563,-12.007813 -7.47656,6.796876 v 44.028646 l 8.60938,6.19271 7.77864,-6.19271 1.73698,2.41667 -19.33333,15.48177 q -6.19271,-5.51302 -10.42188,-7.92969 -4.15364,-2.41667 -9.13802,-3.77604 v -1.66146 q 3.32292,-2.34114 4.30469,-4.68229 1.05729,-2.41667 1.05729,-9.13802 V 73.387447 q 0,-5.815104 -1.35937,-7.703125 -1.28386,-1.963542 -2.8698,-1.963542 -1.73698,0 -4.75781,3.020833 l -1.8125,-2.190104 15.9349,-13.669271 q 6.41927,4.908854 8.76041,8.533854 1.51042,2.265625 1.51042,6.26823 z"
       style="font-style:normal;font-variant:normal;font-weight:normal;font-stretch:normal;font-size:154.66667175px;font-family:'Old English Text MT';-inkscape-font-specification:'Old English Text MT'"
       id="path50"
       inkscape:connector-curvature="0" />
    <path
       d="M 609.38542,50.882238 632.8724,61.90828 646.91927,54.809321 V 71.801509 L 633.32552,69.15828 v 34.28646 q 0,8.30729 0.98177,11.2526 1.28386,3.85157 5.36198,8.91146 6.57032,8.38282 6.57032,12.00782 0,3.625 -3.47396,6.94791 -3.39844,3.32292 -18.27604,10.27084 -5.0599,-1.8125 -9.66667,-2.71875 -4.60677,-0.83073 -8.76042,-0.83073 -9.96875,0 -23.03385,3.54948 l -1.0573,-2.56771 17.82292,-20.84375 -17.82292,-12.83854 V 61.90828 q 14.95313,-3.171875 27.41407,-11.026042 z m 8.60937,18.125001 -20.69271,-7.098959 v 49.46615 l 11.25261,8.15625 9.4401,-11.32813 z M 595.26302,139.1661 q 9.81771,-1.58594 15.85938,-1.58594 5.4375,0 10.95052,1.43489 5.58854,1.4349 11.2526,4.38021 l 3.09636,-1.96354 q -10.19532,-9.51563 -13.82032,-15.40625 -3.625,-5.89063 -4.60677,-12.83854 z"
       style="font-style:normal;font-variant:normal;font-weight:normal;font-stretch:normal;font-size:154.66667175px;font-family:'Old English Text MT';-inkscape-font-specification:'Old English Text MT'"
       id="path52"
       inkscape:connector-curvature="0" />
    <path
       d="m 687.85156,50.882238 21.29688,24.846355 -33.83333,23.713542 v 13.744795 l 17.52083,6.94791 11.85677,-8.08073 1.66146,2.26563 -24.46875,17.06771 q -7.47657,-4.00261 -12.3099,-5.73958 -4.83333,-1.73698 -13.74479,-3.625 v -1.88803 q 2.56771,-1.51041 3.39844,-3.70052 0.90625,-2.26562 0.90625,-9.66666 V 63.569738 q 7.09896,-2.567708 11.78125,-4.682291 3.39844,-1.585938 15.93489,-8.005209 z m -11.47916,8.684896 -1.05729,0.528646 v 34.210939 l 19.86197,-13.895834 z"
       style="font-style:normal;font-variant:normal;font-weight:normal;font-stretch:normal;font-size:154.66667175px;font-family:'Old English Text MT';-inkscape-font-specification:'Old English Text MT'"
       id="path54"
       inkscape:connector-curvature="0" />
  </g>
</svg>
