<svg height="83.28717mm" viewBox="0 0 105.92921 83.28717" width="105.92921mm" xmlns="http://www.w3.org/2000/svg"><g stroke-width=".26458332" transform="translate(-12.724244 -93.898057)"><path d="m12.724257 100.89884c1.76279-1.853407 3.097245-4.061071 4.43776-6.225424.151892-.223557.279755-.465487.455677-.670671.312403-.364366 1.095398.303064 1.218621.766932.139279.524311-.260283 1.05333-.396239 1.578509-.207164.800243-.422068 1.598462-.633102 2.397691-.270148 1.052164-.540295 2.104323-.810442 3.156483-1.413649 6.11365-2.922746 12.30187-3.191301 18.60069-.03275.76805.01517 1.53742.02275 2.30613.07207.41293.472297.90695.216206 1.2388-.222369.28815-.936176.22022-1.086242-.11138-.180149-.39808.351724-.80171.484664-1.21794.620119-1.94156 1.066039-3.93488 1.644308-5.88932.38932-1.31582.816096-2.62027 1.224144-3.9304 1.333517-3.88846 2.85414-7.73798 4.928864-11.29959.808133-1.3873 1.940871-3.12475 3.185034-4.237233.32167-.287623.739426-.445026 1.10914-.667541.663267.09055 1.414711-.07097 1.989801.271653.303567.180859.20714.685689.210164 1.039037.0074.865513-.316711 1.806038-.580549 2.611554-.370977 1.1326-.288761.53313-.351377 1.2308-.407935-.0939-1.044263.0963-1.223807-.28181-.140949-.29686.569893-.32931.868435-.46667.40109-.18454.801849-.38031 1.227473-.49767 1.223391-.33734 2.990141-.30545 4.090623.12016.384087.14854.478729.6702.718092 1.0053.0077.53049.113924 1.06874.02318 1.59147-.499311 2.87665-2.814917 5.69904-4.856937 7.66059-.474258.45557-.996503.85839-1.494753 1.28758-.573863.65022-2.184307 1.28257-2.461219 2.21687-.201175.67875.861324 1.98948 1.157999 2.44101 1.45551 1.91802 3.5392 5.69337 5.986617 6.34652.467133.12467.966962.002 1.450443.004-.200609-.25604-.734959-.47134-.601829-.76812.316072-.7046 1.165723-1.02128 1.667748-1.60809.589209-.68871 1.100315-1.4428 1.593144-2.20346 1.427186-2.20281 2.506197-4.59692 3.595394-6.97568.776861-1.58791 1.28211-3.35501 2.370746-4.77578.365805-.47741.646332-.72571 1.069144-1.1417 1.152432-1.16821 1.342377-1.74739 3.661756-.77016.246952.10405-.127428.52097-.207774.77661-.142484.45337-.306912.89954-.460367 1.34931-1.179513 3.6665-2.768928 7.3063-3.191198 11.17124-.05257.48115-.02513.9677-.0377 1.45155-1.419156.73142 1.252731.91372.871902.80596-.568004-.16072-1.372843.10759-1.734087-.35927-.234913-.3036.62352-.44982.912704-.70226.45315-.39558 1.186241-1.18822 1.611371-1.63691 1.117701-1.12334 1.675657-1.10127 3.724558-.23702.238345.10053.04924.51502.071.77278.02545.3016.0312.60517.07061.90525.03801.28939.107554.57376.16133.86064.106315.19381.144621.44551.318947.58145.140515.10957.703803.11201.528617.0795-.577115-.10726-1.456849.21353-1.734627-.30358-.218591-.40694.804566-.45542 1.190852-.70873.646235-.42375 2.294324-1.64426 2.89691-2.08576 1.121905-.79483 2.205725-1.64093 3.292975-2.48188.03791-.0293.753086-.51916.81629-.73696.01543-.0532-.08741-.0679-.131109-.10188-1.678673-.13632 1.135851-.26122 1.62455-.0278.415382.19843-.916861.15373-1.339456.33629-1.089901.47084-1.999792 1.25494-2.711072 2.19715-.387109.51279-.648128 1.10957-.972193 1.66436-.347929 1.09954-.794999 1.94184-.557577 3.11778.06029.29862.198593.63706.463346.78777.242551.13807 1.088969.0695.835906-.0482-2.208342-1.02711-2.982132.19357-.796922-1.60284 2.616702-2.7998-.09056.13683 2.254673-2.5195.166777-.1889.956556-1.14246 1.248262-1.13405 4.063595.11707 3.71444-.76329 3.861871 1.2984-.009.21379-.09835 1.39094.02164 1.67875.04047.0971.397534.1288.293058.11683-.986351-.11304-2.132978.14508-2.948493-.42114-.379621-.26357.716357-.58423 1.067197-.88505.453326-.38869.896702-.78885 1.345052-1.18327 1.094221-.82142 2.330638-2.12308 3.858596-1.99038 1.430644.12426 2.913605.13363 4.26222.62702.413218.15117.659358 2.12381.700426 2.3577.0348.36207.04415.7275.104397 1.08622.235664 1.4032 1.780164 1.86843-3.115876.30812-.28406-.0905.489886-.34377.705845-.54931.150489-.14323 2.0814-2.24923 2.145471-2.31892.300168-.35962.566405-.75052.900505-1.07886 1.746556-1.71642 3.961251-1.01055 6.612067-.59482.601808.0944 1.079865 2.11856 1.128858 2.37444.09606.50173.09814 1.01695.147208 1.52543-.352171 2.01073.103193.85507-1.078497 2.32139-.502174.62313-.04136.39455-.622099.58829 0 0-.881271-.0333-.881271-.0333v0c-.514252-.13883-.02455.0496-.589706-.53802-1.447636-1.5052-.701686-.19682-1.52005-2.25385-.188357-.69163-.479353-1.99777-.888537-2.64401-.161663-.25533-.951394-.54664-.658921-.6227 1.260002-.32767 2.603505-.34367 3.899532-.22004 1.093672.10434-4.78279.83912-2.964285 1.44085-1.256226 1.2877-1.052508 1.00852-2.096551 2.32691-.207248.26171-.272232.75461-.60302.7996-4.389538.59697-3.932708.63158-4.082531-1.85487-.07354-.38584-.09366-.78582-.220604-1.15753-.112067-.32815-.779177-.72961-.488381-.9185.740418-.48092 1.765562-.19665 2.608672-.45871.378381-.11761-.804889-.0816-1.18859.0173-1.137314.2931-1.943238 1.04908-2.853354 1.72832-.41466.39606-.838396.78284-1.243984 1.18819-.311147.31096-.479739.84943-.90551.96003-1.392435.36172-4.094173 1.39109-4.315851-.0304-.0848-.54379.125328-1.10887-.01633-1.651-.301286-1.69814-.369641-.79849 3.111836-.93024.213585-.008-.438922.0511-.619493.16547-1.234802.78201-2.145982 2.41617-3.258341 3.34514-2.126231 1.98609-1.11978 1.47905-5.56859 1.80432-.282789.0207-.610616-.0732-.80256-.28192-.894686-.97277.100507-3.25783.39656-4.19514.800039-1.40979 1.013288-2.05346 2.223365-3.15319 1.877547-1.70634 5.201129-2.25605 7.423637-.99288.03427.15877.150357.321.102819.47632-.132103.43165-1.99259 1.23854-2.262174 1.3884-1.445387.80346-1.425054.83887-2.835918 1.8018-.937635.69685-1.861206 1.4125-2.799104 2.109-.356478.26472-.652078.66952-1.083378.77504-1.100394.26923-2.250837.30886-3.383651.31787-.195768.002-.38771-.13601-.5125-.28686-.149485-.18069-.176152-.43469-.264229-.65204-.09396-.58819-.148799-1.18232-.247639-1.76971-.03773-.2242-.364665-.57779-.154432-.66433.739999-.30459 1.59199-.16478 2.387155-.2547.143767-.0163-.30322-.0308-.432731.0337-.239734.11938-.421169.33093-.631754.4964-.189195.19308-1.481368 1.51401-1.635247 1.6614-.274865.26329-.481576.66062-.84755.76519-1.055661.30164-2.170655.37613-3.268019.41078-.189876.006-.399336-.12485-.489331-.29216-.136711-.25414-.08559-.57078-.128379-.85618.06077-.49229.09149-.98923.182309-1.47688.70871-3.80557 2.193697-7.4231 3.055342-11.19102.09773-.44515.209375-.88748.293203-1.33545.03827-.20452-.127561-.56349.0727-.61994 4.750731-1.33909 1.981655.12751 1.185449.84585-.380769.35337-.776898.70187-1.11579 1.09761-1.191604 1.39149-1.909037 3.11035-2.744978 4.71798-1.160296 2.36017-2.29103 4.75207-3.659592 7.00186-.295.48496-2.229424 3.55951-2.966106 3.92792-1.116822.55852-2.428132.58406-3.642196.8761-.458579-.0407-.944605.0395-1.375733-.12203-.88288-.33068-1.805961-1.48703-2.354595-2.13964-1.170398-1.3922-2.209264-2.88858-3.3409-4.31122-.448989-.60506-1.618584-1.74895-1.279131-2.67335.326951-.89035 2.150603-1.62905 2.762635-2.23674 2.769933-2.21143 5.992732-5.02496 6.433599-8.79881.05798-.49634-.07829-.99635-.117432-1.49452-.230831-.29992-.599848-.53281-.692492-.89975-.04092-.1621.549127-.29792.383813-.32288-.773798-.11682-1.949196.33011-2.623926.6469-1.725781.81025.328266.44048-2.644813.53899.691162-1.07707 1.233568-2.454715 1.166654-3.758552-.01613-.314272-.324189-.601507-.255936-.908701.04386-.197408.350179-.202351.525269-.303528-.444365.204171-.939793.32189-1.333093.612508-1.377826 1.018106-2.703272 2.810343-3.5804 4.191313-2.21824 3.49246-3.747241 7.36388-5.010648 11.28544-.362888 1.31049-.762456 2.61138-1.088664 3.93148-.562105 2.27473-.783684 3.67954-1.126333 5.90337-.07242.47004.173289 1.11771-.199757 1.4127-.379749.30029-1.11436.24103-1.448252-.10953-.288694-.30312.104865-.8306.157297-1.2459.13485-1.04158.601396-4.66425.71317-5.43083.757136-5.19266 1.793933-10.33642 2.825363-15.47985.263695-1.36023.808172-4.069255 1.034064-5.560069.07873-.519572-.07644-1.107313.179549-1.566248.204597-.366797.768652-.374261 1.067477-.669393.273023-.269651-2.592646.405606-.969463.620815-1.502683 2.067264-2.781454 4.305411-4.443271 6.247425 0 0-.765782-.0677-.765782-.0677z"/><path d="m49.924144 110.94597c.0028-.11943.01654-.23912.0083-.3583-.01725-.24933-.01267-.51099-.10818-.74195-.02381-.0576-.204314-.12152-.142033-.12139 1.723567.004 1.857642-.21217 1.348766.28973-.545478.68805-.290023.51154-1.510543.27736 0 0 .317169.00079.317169.00079v0c-1.538237.0376-1.172498.22383-.660191-.43039.687829-.61905.352089-.42515 2.12979-.21948.173276.0201-.189217 1.17576-.200065 1.31523 0 0-1.182989-.0115-1.182989-.0115z"/><path d="m51.093465 135.31252c-.553382-.69904-.831358-1.68125-1.571879-2.23084-.108837-.0808-.517703-.14982-.38276-.13718.577482.0541 1.146747.17497 1.72012.26245.660958 4.06342.651907 8.2265.140187 12.30779-.169955 1.35551-.442299 2.69621-.663451 4.04431-.754417 3.25674-1.547987 6.634-3.499715 9.42442-.391491.55973-1.377609 1.73812-2.269704 1.82073-.822622.0762-1.649082-.10284-2.473624-.15427-.05327-.17716-.231175-.3608-.159814-.53147.09444-.22588.331253-.42484.573746-.45854 2.994023-.41603 3.823841.28068 6.46765.95744.713158.18256 1.440905.30245 2.16136.45367.658339-.008 1.729192.58546 1.975019-.0253.226854-.56364-1.559491-.0821-1.693225-.67483-.146793-.65057.883357-1.01948 1.175661-1.61895.404463-.82947.701452-1.71793.891759-2.62093.587124-2.78589.32136-4.05699.162989-6.89632-.491998-2.61945-.891958-5.69978-2.987707-7.63453-.343326-.31695-1.669891-.46072-1.242356-.64925 4.282649-1.88854 2.313728.17008 1.891231.66933.04038.22437-.01151.48771.12115.67311.167923.23468.435472.41076.712414.49186.332955.0975 1.3784.10052 1.040591.0215-.89857-.21027-2.364955.42625-2.736739-.41839-.313738-.71276 1.424265-.63034 2.135597-.94731.945325-.42124 1.889578-.84489 2.834365-1.26733.605123-.45797 1.210244-.91594 1.815367-1.37391 0 0 .110003.009.110003.009v0c-.395258.47665-.790516.95329-1.185777 1.42993-.259938.77408-.559581 2.3953-1.639004 2.66263-1.792653.44398-3.672149.44671-5.518351.49427-.338074.009-.703189-.10767-.960287-.32738-.53272-.45524-.278741-1.15466-.206158-1.68718.197057-.24546.280279-.6871.591167-.73637 1.802492-.28571 3.906848-.74962 5.177835.77935 1.793118 2.15708 2.10335 5.16801 2.592697 7.79544.179728 2.81092.396131 4.19845.08745 6.9844-.102153.92196-.226327 1.85606-.534376 2.73102-.231127.65647-.427326 1.50943-1.060379 1.79861-2.37045 1.08281-3.871592.83948-6.019241.66225-.499296-.17563-2.873619-1.01797-3.303514-1.13783-.539398-.1504-1.126807-.13501-1.64221-.35394-.214056-.0909.531577-.2124.696047-.048.170908.17087-1.033682.0782-.475096.54765-.363742.0649-1.257914.52428-1.091222.19455.188931-.37372.840571-.16818 1.19257-.39503.539422-.34764 1.027917-.78993 1.426512-1.29287 2.12463-2.68081 2.909392-6.13537 3.705381-9.36899.194183-1.34475.45612-2.68144.582544-4.03425.22929-2.45353.191365-4.63665-.03216-7.07295-.194561-2.12063-.354367-2.36868-.669007-4.25431-.05533-.33159-.08966-.66634-.134488-.99951.602944-.12581 1.195488-.321 1.808824-.37742.07009-.006.01871.14025.03997.20735.245367.77412.675778 1.48151.84093 2.28102 0 0-.518892.0213-.518892.0213z"/><path d="m58.419528 161.24996c.952765-1.50335 1.621573-3.18123 1.656488-4.9903.0097-.50479-.08922-1.00581-.133832-1.50871-.02901-.31276-.05917-1.5455-.332708-1.95138-.04536-.0673-.320281.0141-.241271.0326.762421.17881 1.640745.0376 2.305526.45147.288494.17962.01992.68.05471 1.01806.04352.42292.119997.8418.179997 1.2627-1.568234.41717 1.789051 1.69834 1.087784 1.92706-.748885.24424-1.719213.29105-2.356901-.17137-.338111-.24519.634794-.564.845759-.92446.962459-1.64447 1.220092-3.20228 1.714032-5.04459.497544-2.86845.822426-5.77482.893437-8.68701.0096-.39507-.412557-1.07502-.03301-1.1851 4.091172-1.18663 3.463983-.24719 3.326995 1.89244-.02543 3.08388-.116814 6.22398.518726 9.26486.178681.85494.383749 1.72255.7772 2.50232.243914.48341 1.579277.96612 1.092118 1.20246-.771522.3743-1.68116-.33925-2.521741-.50888.447098-.68282 1.001533-1.30637 1.341297-2.04847 1.172753-2.56145 1.644748-5.1477 2.038745-7.92231.297965-2.09836.597111-5.70968.527489-7.92018-.02529-.80305-.191998-1.59538-.287996-2.39307-.210887-.27364-.978054-.81405-.632654-.8209 1.269278-.0252 2.837408-.14129 3.73211.75938.532476.53603-.682078 1.35445-.91989 2.0716-.358487 1.08105-.635244 2.19009-.863354 3.30595-.704879 3.44811-.66615 4.55073-.914789 8.06492.08573 2.75946-.116893 6.18823 1.285568 8.72763.213524.38662.515342.76496.910148.96294.291264.14606 1.298845.0367.977365-.0164-1.166672-.1927-2.34955-.26953-3.524324-.40429.967193-.44774 1.50294-1.45103 2.374932-2.01378.136718-.0882.298352-.17932.460224-.16276 1.657483.16961 3.360733.20592 4.946854.71604.313817.10093.168354.63744.252529.95616.135078.50141.314015 1.43331.690118 1.86401.135228.15486.368681.18207.553021.2731-1.307856-.10414-2.678781.10209-3.923569-.31244-.35809-.11925.624139-.43143.89231-.69701.339563-.33627.613989-.7325.920982-1.09875.565979-.67553.959681-1.48119 1.515425-2.16447.167656-.20613.302805-.5296.566695-.56056 4.384972-.51462 4.86401-1.41398 6.019046 1.2199.112803.20176.178642.43823.338408.60528.103343.10806.274275.11916.411414.17874-1.41436-.0938-2.875738.0922-4.243076-.28142-.33996-.0929.574739-.41116.833697-.65021.454692-.41972 1.77419-1.87764 2.165186-2.30367 2.291231-2.38973 2.933401-2.30542 7.355509-1.74844.590436.0744.573582 2.79984.577527 3.17569-.0085.14751-.111072 1.71913-.088 1.99925.134274 1.63046 7.099426 2.50346-4.534011-.046-.252981-.0554.397648-.333.580533-.51637.258458-.25915.494554-.53968.741831-.80952.265007-.24995.500364-.53565.795017-.74985 1.791364-1.30225 4.8376-.59869 6.517571-.48838.485262.0319 1.741401 1.17816 2.16811 1.5042 2.169195.90764-3.466782 1.25637-4.698233.10231-.372713-.34929-.50224-.66547-1.069776-.77406-.239107-.0457-.484696.0461-.727046.0692 6.71489.49269 4.381381-1.00162 3.853122 1.11287-.253516 1.01477-.117184 2.68099.491648 3.56557.149617.21737.424387.31377.636577.47065-1.518883-.0912-3.069865.0501-4.556649-.27365-.305892-.0666.546966-.32287.758923-.55326.278866-.30312.488299-.66573.691904-1.02377.197303-.34696.354357-.71597.507114-1.08471.09412-.22719-.01214-.72703.232317-.70022 1.693344.18571 3.300352.84575 4.950524 1.26863-2.026171 5.12693-3.747902 10.39094-6.129277 15.37203-.316857.66277-.689345 1.29747-1.034018 1.94621-1.359567 1.72377-1.830803 2.71051-5.708303-.53524-.645949-.54071.707363-1.53006 1.103381-2.27356.990245-1.8591 3.188137-5.53844 4.164327-7.22609.829091-1.43334 1.645222-2.87414 2.467833-4.31122 2.009126-3.62055 3.950671-7.29313 5.483097-11.14583.27699-.69638.52242-1.4056.74726-2.12052.0966-.30713-.1028-.89458.21573-.94148 1.78764-.26319 3.61306.0745 5.41959.11178-.20256 1.12749-.48578 2.32485-.22629 3.47348.0666.29476.15219.62.37302.82628.16163.15098.87147.1426.65067.12992-1.45095-.0833-2.89772-.22806-4.34658-.34209 1.40341-.70603 2.52637-1.80915 3.66402-2.86617.45746-.42505 1.32738-1.30516 1.90655-1.66394.23626-.14636.51187-.21667.7678-.325 2.00152.0691 4.01933-.0566 6.00457.20742.31877.0424.47644.43495.68253.68181.63618.76203 1.23668 1.77601 1.46415 2.75177.0745.31946.0681.65251.10213.97876-.0708.3657-.10174.74144-.2124 1.09711-.26834.86244-1.06478 2.4279-1.40467 3.16113-.34298.7399-.6759 1.48443-1.01385 2.22665-.33516.81277-.64241 1.63762-1.00546 2.43833-.35898.79172-.77289 1.55738-1.15934 2.33608-2.32803 2.32783-1.22894 1.30538-3.26136 3.10549 0 0-.11029-.004-.11029-.004v0c-.57816-1.92143-.26958-.83937-.89965-3.2535.1969-.78945.34257-1.59348.59071-2.36835.13348-.41682 1.6438-4.18417 1.845-4.68741.22986-.57495.95838-2.32405 1.16747-3.05418.0881-.30765.12035-.6286.18053-.9429-.11083-1.09059-.26948-1.6549-.92207-2.57609-.18803-.26542-.3898-.52593-.63024-.74499-.20464-.18643-.9645-.41183-.6918-.45946 1.49128-.26043 3.0244-.14133 4.5366-.21199-.27393.0457-.56662.0276-.82178.13718-.65856.28296-1.55426 1.15161-2.03405 1.58943-1.15462 1.05362-2.25356 2.17533-3.51606 3.10464-2.06225.089-4.12404.34486-6.18674.26707-1.28493-.0485-.96787-4.00392-.97366-4.79093 1.77208-.0434 3.56827-.42464 5.31625-.13015.35563.0599-.3814.61312-.54653.93372-.3608.70049-.681 1.4212-1.03023 2.12752-1.86402 3.76995-3.83302 7.48625-5.879121 11.16058-2.06884 3.77441-4.309157 7.53305-5.972902 11.51353-.288113.6893-.04256 1.81197-.722445 2.12164-1.635662.74501-3.558058.55723-5.353222.6457-.313055.0154.559771-.28217.839658-.42326.436224-.62645.929402-1.21686 1.308669-1.87934 1.124355-1.96394 2.139833-4.48434 2.917333-6.5783 1.059857-2.85441 1.948875-5.77567 2.648198-8.73888 6.224532-1.01399 6.371252-2.59914 5.241552-.1934-.38357.81683-.65898 1.54122-1.161351 2.30067-.211199.31928-.339138.84868-.71908.89543-1.987203.24456-4.004138-.0452-6.006205-.0678-.186532-.23865-.428588-.44285-.559597-.71595-.557223-1.16159-.57047-2.72224-.24702-3.94708.09793-.37084.08128-.95664.451038-1.05857 1.763302-.48604 3.63833-.38005 5.457494-.57008.722043.18354.718177.0971 1.320297.63334.556123.49532.946774 1.24338.797174 1.26884-4.501097.76598-3.880802 1.13817-5.504717-.13553-.358899-.35168-.654746-.68565-1.112742-.92696-.245555-.12937-1.058537-.24579-.783381-.28218 9.95489-1.31627 3.840575-.27905 3.059139.16201-.316135.17843-.566873.45362-.85031.68043-.224113.26907-.463132.52638-.672338.80719-.164373.22064-.1729.66351-.446302.69433-6.210218.70005-5.19339.99083-5.07891-2.4565-.02217-.59129.0141-1.48584-.248631-2.06505-.074-.16314-.559176-.35286-.381834-.37818 8.176538-1.16768 4.40618-.54148 3.18153.34707-.402362.29194-.739243.66484-1.108863.99726-2.091336 2.30954-.148474.13532-2.055024 2.34728-.244399.28355-.375791.77963-.74521.84014-3.798319.6222-4.852763 1.46933-6.024054-.84155-.129403-.19522-.228397-.41444-.388205-.58566-.860335-.9218-6.909424-1.22578 3.818361-.44258.271994.0199-.491802.25145-.691682.43699-.509886.47329-1.29494 1.63412-1.67132 2.15844-.287041.38826-.562033.78573-.861121 1.1648-.246488.3124-.382775.83906-.774628.90836-.753446.13323-4.723427 1.45284-5.795754-.34491-.208348-.3493-.556593-1.55965-.66585-1.91208-.849707-2.17109-.532508-.59848 3.91568-1.10171.17645-.02-.34484-.17981-.515996-.13249-.844312.23344-1.660207 1.66548-2.405803 2.1068-1.835166.17859-3.662611.47678-5.505503.53578-.322506.0103-.670378-.11417-.909886-.3304-.814602-.73541-1.064218-2.31319-1.187829-3.2321-.311203-2.31347-.210089-4.4386-.201369-6.77743.08805-1.37128.136427-2.74568.264163-4.11384.206867-2.21578.619786-5.15244 1.089546-7.36968.162044-.76485-.09845-1.91147.597263-2.26815 1.50419-.77118 3.347103-.73838 5.033205-.61853.338365.024.150424.66155.225637.99233-.0082.81163.01929 1.62441-.02469 2.43489-.225946 4.16338-.933698 8.26496-1.867924 12.32354-.283104 1.22991-.546742 2.46848-.94076 3.66746-.266266.81024-.689086 1.56034-1.033627 2.34051-1.589878.0906-3.206501.57604-4.769633.27183-.501951-.0977-.580403-.85808-.739658-1.34402-.270203-.82448-.398071-1.69052-.535583-2.54717-.49344-3.07397-.624986-6.19358-.772276-9.29776-.189291-1.97857-.835258-3.0764 3.162003-1.86415.385924.11704-.207317.78079-.272365 1.1788-.473376 2.89641-.623181 5.84415-1.239644 8.71989-.32938 1.66534-.596852 3.58527-1.279654 5.18158-.187905.43929-.303255 1.09928-.767975 1.21028-3.69362.88222-3.97909.29672-4.466968-2.2061-.000529-.006-.291873-2.21084-.06547-2.36181 3.171195-2.11463 2.628458-.2825 2.634295 1.52718-.100732.5065-.209402 1.01149-.302197 1.51951-.318693 1.74475-.490537 3.73273-1.795544 5.06626 0 0-1.330359-.0973-1.330359-.0973z"/></g></svg>