<?xml version="1.0" standalone="no"?>
<!DOCTYPE svg PUBLIC "-//W3C//DTD SVG 20010904//EN"
 "http://www.w3.org/TR/2001/REC-SVG-20010904/DTD/svg10.dtd">
<svg version="1.0" xmlns="http://www.w3.org/2000/svg"
 width="1613.000000pt" height="3413.000000pt" viewBox="0 0 1613.000000 3413.000000"
 preserveAspectRatio="xMidYMid meet">
<metadata>
Created by potrace 1.13, written by Peter Selinger 2001-2015
</metadata>
<g transform="translate(0.000000,3413.000000) scale(0.100000,-0.100000)"
fill="#000000" stroke="none">
<path d="M13366 34074 c-29 -62 -155 -272 -226 -379 -93 -139 -256 -364 -280
-385 -3 -3 -23 -27 -45 -55 -22 -27 -44 -55 -50 -61 -5 -6 -39 -45 -75 -85
-82 -94 -403 -415 -495 -495 -64 -56 -139 -121 -190 -163 -80 -66 -295 -233
-351 -271 -12 -8 -84 -58 -160 -111 -162 -111 -361 -239 -373 -239 -5 0 -11
-3 -13 -8 -3 -7 -153 -97 -270 -161 -29 -16 -87 -48 -128 -71 -92 -51 -557
-283 -660 -328 -41 -19 -88 -40 -105 -47 -16 -7 -68 -30 -115 -50 -47 -20 -99
-43 -117 -51 -65 -29 -443 -178 -583 -229 -495 -182 -766 -268 -1175 -374
-106 -27 -415 -88 -489 -95 -32 -4 -62 -8 -65 -10 -26 -17 -418 -27 -541 -14
-292 30 -515 140 -662 328 -176 226 -167 476 26 740 72 98 256 272 372 350 80
54 167 111 191 125 15 9 55 32 88 51 216 124 603 296 830 369 28 8 57 18 65
22 8 3 20 7 25 9 6 1 53 16 105 34 52 17 103 33 113 35 10 2 27 7 37 10 10 3
27 8 37 11 264 69 339 88 393 100 36 8 74 17 85 20 11 2 31 6 45 9 14 3 36 7
50 11 40 9 411 73 419 72 3 0 13 1 21 2 89 15 -642 21 -750 6 -19 -3 -73 -7
-120 -10 -47 -3 -103 -8 -125 -11 -22 -3 -60 -7 -85 -10 -97 -11 -260 -36
-345 -51 -11 -2 -49 -9 -85 -15 -36 -6 -103 -20 -150 -31 -47 -11 -93 -21
-103 -23 -10 -2 -27 -7 -37 -10 -10 -3 -27 -7 -37 -9 -54 -11 -319 -89 -358
-106 -11 -4 -56 -21 -100 -35 -44 -15 -92 -34 -107 -42 -16 -7 -28 -11 -28 -7
0 4 -6 2 -13 -4 -6 -6 -35 -19 -62 -30 -60 -24 -288 -133 -295 -141 -3 -3 -30
-19 -60 -35 -75 -39 -344 -208 -348 -218 -2 -4 -8 -8 -13 -8 -22 0 -396 -276
-529 -390 -29 -25 -62 -53 -74 -63 -96 -81 -181 -162 -376 -357 -220 -220
-285 -287 -620 -650 -52 -57 -111 -120 -130 -141 -19 -20 -78 -83 -130 -140
-142 -155 -305 -317 -400 -399 -266 -229 -362 -325 -435 -435 -119 -179 -130
-348 -33 -539 45 -90 38 -135 -35 -217 -31 -35 -169 -139 -184 -139 -6 0 -13
-4 -15 -9 -1 -4 -32 -25 -68 -45 -81 -46 -456 -231 -490 -241 -14 -4 -51 -20
-83 -36 -31 -15 -61 -29 -65 -30 -4 0 -23 -8 -42 -16 -19 -8 -147 -59 -285
-114 -137 -55 -259 -104 -270 -109 -11 -5 -90 -36 -175 -70 -134 -53 -342
-150 -390 -180 -8 -6 -44 -27 -80 -48 -443 -256 -791 -628 -939 -1005 l-31
-78 0 -455 c0 -453 0 -457 25 -547 13 -51 35 -123 48 -162 30 -88 129 -336
133 -333 1 2 5 59 8 128 3 69 8 136 10 150 8 41 17 103 21 135 12 88 65 256
106 337 38 74 124 188 143 188 4 0 19 9 34 20 28 21 106 32 107 15 0 -5 3 -14
7 -20 7 -11 32 -94 33 -110 0 -5 3 -14 6 -20 5 -9 16 -43 24 -80 2 -5 13 -46
24 -90 12 -44 23 -89 26 -100 2 -11 13 -60 24 -110 12 -49 27 -115 34 -145
l13 -55 21 45 c12 25 31 68 43 95 258 585 394 797 641 1000 96 79 311 180 449
210 34 7 34 7 18 -16 -125 -193 -183 -420 -153 -604 5 -27 9 -57 10 -65 1 -8
5 -22 8 -30 2 -8 15 -46 27 -85 24 -73 77 -192 90 -200 4 -3 25 30 47 73 52
102 99 185 139 250 19 29 34 56 34 61 0 5 3 11 8 13 4 2 32 39 62 83 29 44 59
85 65 90 6 6 27 30 47 55 29 37 135 145 207 210 38 35 202 140 276 176 117 59
292 116 418 138 21 4 44 9 52 12 10 4 11 -2 5 -28 -4 -18 -10 -40 -14 -48 -3
-8 -7 -26 -10 -40 -2 -14 -11 -56 -20 -93 -9 -38 -19 -92 -22 -120 -4 -29 -8
-54 -10 -58 -2 -5 -9 -64 -19 -189 -9 -102 -3 -590 7 -584 3 2 36 55 73 116
38 62 120 191 184 287 64 95 121 181 126 189 6 9 16 22 23 30 6 7 26 35 44 60
46 67 204 269 273 349 77 89 298 309 354 354 24 18 48 39 55 44 25 23 155 104
211 133 71 35 155 60 210 63 66 3 70 2 52 -19 -25 -28 -114 -222 -151 -330
-32 -93 -52 -174 -77 -312 -14 -77 -19 -341 -8 -414 4 -28 10 -68 12 -89 6
-51 14 -56 22 -16 18 83 127 311 201 423 21 32 47 70 56 85 55 82 238 277 323
343 17 12 41 33 55 46 34 31 262 183 330 219 150 81 323 163 344 163 7 0 16 4
22 9 12 13 345 124 351 117 3 -2 -22 -44 -54 -93 -33 -48 -75 -110 -93 -138
-61 -91 -316 -443 -330 -455 -3 -3 -19 -23 -35 -45 -17 -22 -32 -42 -35 -45
-3 -3 -48 -59 -101 -125 -54 -66 -105 -130 -115 -141 -11 -12 -39 -46 -64 -75
-25 -29 -63 -74 -85 -99 -22 -25 -54 -60 -70 -79 -17 -19 -46 -51 -65 -72 -19
-20 -63 -68 -96 -105 -34 -38 -86 -94 -115 -125 -30 -31 -137 -143 -239 -250
-336 -352 -633 -645 -740 -730 -58 -46 -107 -87 -110 -90 -8 -10 -251 -173
-305 -204 -221 -130 -423 -224 -650 -302 -55 -19 -107 -36 -115 -38 -8 -2 -60
-15 -115 -30 -55 -14 -116 -28 -135 -31 -19 -3 -41 -7 -48 -10 -8 -2 -37 -7
-65 -10 -29 -3 -63 -8 -77 -12 -14 -3 -182 -6 -375 -7 -315 -2 -518 -9 -578
-21 -12 -2 -35 -7 -52 -11 -16 -4 -34 -6 -38 -5 -4 1 -36 -5 -70 -13 -184 -47
-359 -130 -509 -240 -75 -55 -234 -205 -283 -266 -44 -55 -50 -63 -40 -57 6 3
53 30 105 60 135 77 420 208 420 192 0 -3 9 0 21 7 21 11 162 53 209 63 186
37 210 41 325 52 39 3 81 8 95 9 30 4 192 7 315 5 57 0 84 -4 75 -9 -8 -5 -73
-25 -145 -45 -417 -115 -587 -198 -761 -370 -89 -89 -164 -182 -164 -205 0 -6
-4 -11 -9 -11 -12 0 -97 -177 -131 -275 l-29 -80 51 55 c69 76 238 248 280
286 61 55 210 164 224 164 8 0 14 4 14 9 0 8 94 54 190 91 90 35 272 78 495
116 329 56 430 78 628 140 81 25 251 86 302 109 17 7 66 28 110 46 178 73 517
256 735 398 84 55 274 186 297 206 6 5 48 37 92 69 45 33 81 63 81 68 0 4 4 8
10 8 5 0 20 9 32 19 337 283 374 319 1385 1326 812 808 1084 1075 1096 1075 5
0 6 -3 4 -7 -3 -5 -8 -32 -11 -61 -3 -30 -8 -57 -10 -60 -2 -4 -7 -29 -10 -56
-4 -27 -9 -52 -11 -55 -1 -3 -6 -22 -9 -41 -16 -106 -135 -458 -192 -573 -8
-16 -14 -33 -14 -38 0 -21 -233 -482 -298 -589 -12 -19 -25 -42 -29 -50 -97
-211 -456 -479 -883 -659 -41 -18 -84 -36 -95 -41 -37 -18 -260 -89 -298 -96
-36 -6 -59 -20 -34 -21 22 0 98 -13 105 -17 4 -2 25 -7 47 -10 22 -4 88 -16
146 -27 135 -25 303 -31 389 -12 83 18 76 16 133 41 27 12 50 22 53 22 16 0
-88 -215 -148 -304 -115 -171 -221 -281 -313 -326 -198 -97 -471 -144 -855
-149 l-135 -2 50 -25 c91 -46 318 -141 425 -177 134 -46 269 -85 300 -86 24
-2 0 -17 -105 -69 -199 -98 -367 -152 -550 -178 -43 -6 -250 -7 -275 -1 -8 2
-33 7 -55 11 -74 14 -165 45 -236 80 -38 19 -69 32 -69 29 0 -12 47 -91 79
-133 105 -136 240 -236 381 -281 32 -10 49 -19 40 -23 -19 -6 -166 -36 -205
-41 -16 -2 -41 -6 -55 -9 -14 -2 -47 -7 -75 -11 -83 -10 -398 -65 -430 -74
-22 -7 -25 -10 -10 -11 11 -1 29 -3 40 -6 11 -2 37 -6 59 -9 37 -5 66 -10 116
-20 58 -11 78 -14 124 -20 27 -3 52 -8 56 -10 3 -2 33 -6 65 -10 33 -4 71 -9
85 -12 14 -3 117 -7 230 -9 187 -3 215 -1 319 21 62 13 134 32 160 41 55 20
211 96 261 126 19 12 44 26 55 32 11 6 31 19 45 27 14 9 93 58 175 109 216
134 480 312 617 415 117 89 143 110 238 190 529 443 835 881 1067 1525 24 69
49 134 53 145 5 11 23 65 40 120 17 55 34 107 37 115 3 8 7 20 9 25 5 22 104
332 115 365 38 108 88 209 148 300 65 99 234 273 417 428 57 49 95 64 108 43
3 -5 17 -12 31 -15 24 -6 209 -95 249 -119 11 -7 45 -27 75 -46 207 -126 466
-349 622 -536 19 -22 36 -42 40 -45 3 -3 34 -43 70 -90 154 -201 291 -431 382
-640 8 -19 24 -57 36 -83 22 -48 97 -264 106 -302 3 -11 16 -65 29 -120 25
-97 37 -208 38 -330 0 -72 -11 -265 -16 -274 -2 -3 -7 -26 -10 -51 -3 -25 -8
-54 -11 -65 -2 -11 -12 -51 -20 -89 -16 -72 -42 -170 -52 -196 -3 -8 -7 -19
-9 -25 -4 -19 -65 -179 -81 -215 -59 -131 -122 -257 -170 -339 -62 -105 -171
-264 -184 -269 -5 -2 -9 -8 -9 -13 0 -13 -42 -59 -160 -178 -116 -117 -151
-147 -230 -201 -12 -8 -28 -21 -36 -27 -7 -7 -17 -13 -22 -13 -6 0 -12 -3 -14
-7 -5 -12 -300 -203 -313 -203 -2 0 -36 -19 -77 -43 -40 -24 -111 -64 -158
-89 -213 -114 -190 -103 -905 -470 -93 -47 -197 -100 -230 -117 -126 -64 -267
-140 -281 -152 -8 -6 -14 -8 -14 -5 0 4 -17 -5 -37 -19 -21 -14 -41 -25 -44
-25 -7 0 -266 -143 -419 -232 -279 -161 -570 -347 -811 -518 -96 -68 -176
-126 -179 -129 -3 -4 -30 -26 -60 -49 -30 -23 -71 -55 -90 -71 -19 -16 -69
-57 -110 -91 -232 -192 -508 -475 -670 -689 -14 -18 -34 -45 -46 -59 -24 -31
-107 -153 -157 -232 -41 -64 -126 -219 -161 -294 -41 -88 -76 -166 -76 -171 0
-2 -5 -16 -12 -32 -6 -15 -12 -30 -13 -33 0 -3 -17 -57 -38 -120 -33 -105 -63
-217 -73 -280 -2 -14 -6 -34 -9 -46 -3 -12 -7 -39 -10 -60 -3 -21 -7 -48 -10
-59 -26 -124 -27 -583 -1 -745 2 -14 7 -49 10 -78 4 -29 9 -59 12 -67 5 -13
-197 -15 -1707 -17 l-1713 -3 1 -1810 c1 -1634 6 -2254 17 -2273 2 -4 7 -52
11 -107 4 -55 9 -103 11 -106 2 -3 6 -60 9 -125 5 -116 8 -180 20 -391 3 -56
8 -112 10 -125 10 -51 15 -85 20 -128 2 -25 6 -65 10 -90 3 -25 7 -79 9 -120
3 -41 12 -125 21 -186 8 -62 17 -129 20 -150 2 -22 7 -55 9 -74 2 -19 7 -78
11 -130 3 -52 12 -124 20 -160 17 -80 23 -120 30 -185 8 -75 15 -128 19 -150
2 -11 12 -56 21 -100 9 -44 18 -96 21 -115 9 -73 25 -164 30 -171 6 -11 22
-99 29 -161 3 -29 14 -84 24 -123 10 -38 24 -101 31 -140 7 -38 21 -102 31
-141 10 -40 21 -86 24 -103 3 -17 8 -46 11 -63 3 -18 16 -71 29 -118 14 -47
27 -103 30 -125 4 -22 15 -67 25 -100 24 -78 34 -117 31 -132 -1 -6 9 -40 22
-75 13 -34 25 -66 25 -71 0 -4 3 -20 6 -35 4 -15 8 -36 11 -47 2 -11 13 -47
24 -80 11 -33 29 -94 41 -135 46 -167 61 -216 75 -245 7 -16 20 -57 29 -90 9
-33 25 -83 36 -112 11 -29 22 -66 25 -84 3 -17 15 -49 26 -72 12 -22 23 -54
26 -71 3 -17 13 -48 23 -71 10 -22 24 -58 30 -80 7 -22 22 -62 35 -90 12 -27
26 -66 30 -85 4 -19 18 -56 31 -82 13 -25 26 -61 29 -79 3 -19 9 -36 14 -39 4
-3 17 -32 30 -65 12 -33 33 -85 46 -115 13 -30 31 -76 40 -102 9 -26 21 -50
26 -53 5 -4 9 -13 9 -22 0 -9 16 -50 36 -92 20 -42 46 -98 59 -126 13 -27 37
-80 54 -116 17 -37 31 -69 31 -72 0 -6 82 -176 107 -222 6 -11 18 -36 26 -55
9 -19 23 -46 31 -60 8 -14 35 -68 61 -120 25 -52 61 -122 79 -155 18 -33 54
-100 81 -150 26 -49 52 -96 58 -103 6 -7 21 -34 34 -60 59 -117 76 -147 83
-152 4 -3 19 -27 34 -55 14 -27 39 -72 56 -100 16 -27 41 -72 56 -100 15 -27
30 -52 34 -55 4 -3 18 -26 30 -52 12 -26 28 -52 36 -59 8 -6 14 -16 14 -22 0
-5 16 -34 35 -63 19 -29 35 -57 35 -62 0 -5 6 -15 14 -21 8 -7 37 -51 66 -99
95 -160 123 -207 130 -212 4 -3 10 -14 14 -26 3 -11 14 -29 24 -40 10 -10 29
-38 42 -60 14 -23 45 -73 70 -110 25 -38 50 -76 55 -85 16 -28 106 -162 126
-189 10 -14 26 -38 35 -55 9 -16 20 -32 24 -35 4 -3 19 -25 35 -49 15 -25 31
-49 36 -55 34 -42 79 -108 79 -114 0 -5 8 -17 18 -28 10 -10 47 -61 83 -113
88 -129 91 -133 116 -161 13 -14 23 -30 23 -37 0 -7 6 -16 14 -20 7 -4 24 -26
38 -48 14 -22 33 -46 42 -54 9 -7 16 -19 16 -26 0 -7 7 -18 15 -25 9 -7 40
-47 69 -89 30 -42 62 -86 73 -98 10 -13 34 -44 53 -69 19 -26 46 -58 59 -73
12 -14 29 -38 37 -52 7 -15 20 -29 29 -32 8 -4 15 -13 15 -20 0 -8 7 -21 16
-28 9 -7 41 -47 72 -89 31 -41 61 -80 67 -86 5 -6 24 -29 42 -50 17 -22 71
-86 119 -144 48 -58 103 -125 123 -149 83 -101 125 -149 168 -196 16 -16 58
-64 93 -105 36 -41 67 -77 70 -80 3 -3 33 -37 67 -76 34 -39 86 -96 115 -126
29 -31 114 -119 188 -198 74 -79 172 -179 218 -224 46 -44 138 -135 206 -201
110 -108 204 -195 336 -311 67 -59 75 -67 111 -100 31 -29 54 -48 163 -137 21
-18 49 -42 61 -55 12 -12 26 -22 31 -22 5 0 25 -15 44 -33 51 -49 256 -207
345 -267 13 -8 33 -23 46 -33 13 -10 49 -36 79 -57 30 -22 64 -46 75 -55 41
-30 125 -85 131 -85 3 0 24 -13 47 -29 23 -15 71 -47 107 -70 36 -22 70 -44
75 -49 14 -11 94 -56 205 -114 52 -28 102 -56 110 -63 8 -7 25 -16 38 -20 12
-3 36 -18 53 -32 40 -34 111 -37 154 -7 52 36 132 82 157 89 12 4 34 14 48 23
14 9 68 38 120 65 52 27 97 52 100 57 3 4 21 15 40 25 19 10 49 29 66 41 17
13 35 24 39 24 4 0 22 11 39 24 17 13 49 33 71 45 65 35 198 124 229 153 11
10 25 18 32 18 6 0 17 7 25 16 7 8 38 32 68 52 31 20 58 40 59 44 2 5 8 8 14
8 6 0 25 12 43 28 18 15 65 52 105 82 39 30 103 80 140 110 37 30 96 77 131
105 35 27 69 54 75 60 6 5 33 28 59 50 27 22 55 47 64 55 16 16 149 133 210
186 210 180 765 735 946 944 26 30 52 60 59 65 6 6 40 44 76 85 36 41 75 84
86 95 12 11 61 67 109 125 139 167 159 191 185 221 14 16 36 43 50 60 14 17
30 36 36 42 10 12 160 199 212 266 15 19 35 42 45 52 9 11 17 21 17 24 0 5 2
8 79 102 28 34 51 65 51 69 0 4 11 17 25 30 14 13 25 26 25 30 0 3 17 28 38
54 51 67 135 179 147 198 6 8 15 23 22 31 40 52 79 106 89 123 6 10 20 29 31
41 11 12 30 40 43 62 13 22 29 43 36 47 6 4 17 21 24 38 7 16 16 30 21 30 5 0
18 17 29 38 22 39 54 87 93 136 12 16 25 36 28 45 4 9 16 25 28 35 11 11 21
23 21 29 0 5 13 26 29 46 15 20 36 50 45 66 18 33 47 77 117 182 79 119 84
125 104 159 11 18 30 45 43 61 12 15 22 33 22 40 0 7 9 21 20 30 11 10 20 22
20 27 0 5 19 38 43 74 23 35 42 67 42 70 0 4 8 18 18 32 33 45 97 149 97 156
0 4 6 15 14 23 8 9 23 32 34 51 71 125 95 165 101 170 4 3 13 21 21 40 8 19
22 44 32 54 10 11 20 28 24 39 3 10 29 55 56 100 28 45 57 96 65 112 8 17 30
57 49 90 19 33 44 80 55 105 12 25 27 52 34 60 7 8 35 58 63 110 27 52 62 116
76 143 14 26 23 47 21 47 -3 0 6 17 19 37 13 21 30 55 37 75 7 21 16 38 20 38
3 0 14 21 24 48 10 26 23 54 30 62 13 16 45 84 45 95 0 4 8 19 19 33 10 15 22
38 26 52 4 14 21 54 38 90 16 36 41 90 55 120 14 30 38 81 53 113 16 32 29 63
29 68 0 6 9 29 21 52 18 38 33 74 88 217 10 25 23 56 29 70 50 119 94 229 98
249 3 13 16 51 31 85 14 33 32 84 40 111 8 28 19 55 23 60 5 6 15 35 23 65 8
30 24 78 35 105 29 72 85 248 97 305 2 8 10 28 19 45 8 16 21 54 27 84 6 30
19 73 29 97 10 23 21 59 24 79 4 21 17 70 31 111 13 40 27 87 30 103 3 17 16
66 30 108 13 43 27 94 30 113 3 19 16 73 30 120 13 47 27 103 30 125 4 22 15
67 25 100 17 55 38 149 45 199 1 12 12 55 24 96 11 41 21 86 21 100 0 14 10
61 21 105 27 104 29 119 45 230 3 22 14 78 25 124 12 46 22 100 24 121 4 56
15 117 30 180 8 30 17 75 20 100 9 74 14 122 21 180 3 30 7 57 9 61 2 3 7 21
10 40 3 19 7 45 10 59 10 53 14 88 20 184 4 54 8 106 10 116 2 9 6 41 10 71 3
30 10 77 15 104 10 57 18 137 25 251 5 81 14 161 21 198 2 12 6 41 9 66 3 25
8 59 10 75 2 17 7 87 10 155 7 186 22 418 29 485 7 54 19 185 23 235 2 30 7
945 10 2033 l5 1977 -1765 0 -1765 0 -4 28 c-5 38 -1 314 6 390 3 34 8 90 11
125 6 64 12 115 20 151 2 12 7 41 10 66 3 25 9 60 14 78 5 18 10 35 10 37 0 3
2 18 5 33 4 15 8 36 10 48 11 58 68 238 103 324 16 41 108 226 126 255 7 10
38 59 70 108 31 49 57 91 57 94 0 3 10 20 23 37 13 17 45 67 72 111 28 44 53
85 57 90 22 29 98 149 98 154 0 4 8 16 18 27 10 10 21 26 25 34 9 18 10 20
157 246 63 98 117 182 119 188 2 5 8 15 13 21 8 9 85 126 203 310 110 171 171
265 196 303 16 24 29 45 29 47 0 3 17 29 37 57 20 29 38 54 38 56 1 1 29 -6
62 -17 288 -92 526 -353 683 -751 54 -136 129 -394 146 -500 3 -19 9 -51 14
-70 5 -19 11 -53 15 -75 3 -23 7 -52 10 -65 6 -30 13 -81 20 -140 3 -25 7 -58
10 -75 13 -78 33 -332 34 -434 2 -113 15 -36 26 159 4 58 8 122 11 143 4 49
16 447 15 507 -1 25 -3 117 -6 205 -2 88 -6 185 -9 215 -29 280 -27 269 -48
385 -16 93 -18 102 -34 174 -9 36 -17 73 -19 81 -2 8 -23 76 -48 150 -46 139
-116 295 -174 388 -18 29 -33 55 -33 58 0 5 -41 65 -50 74 -3 3 -23 30 -45 60
-22 30 -42 57 -45 60 -14 12 -130 151 -130 155 0 3 18 45 41 93 75 161 199
458 199 477 0 2 5 16 12 32 6 15 12 35 14 43 2 8 10 30 18 50 14 33 64 187 71
220 2 8 22 79 44 158 34 123 90 355 96 402 6 46 17 98 26 119 9 23 13 23 83
18 146 -12 265 -74 402 -211 126 -125 241 -297 348 -516 49 -100 111 -239 111
-250 1 -3 15 -43 33 -89 42 -105 93 -259 142 -426 l39 -130 -5 85 c-4 83 -8
130 -19 220 -3 25 -7 67 -10 94 -3 27 -7 63 -10 80 -2 17 -7 54 -10 81 -3 28
-8 57 -10 65 -2 8 -6 38 -10 65 -3 28 -8 57 -10 65 -2 8 -6 26 -9 40 -33 193
-127 544 -175 655 -5 11 -21 52 -36 90 -31 78 -123 268 -157 324 -81 134 -203
305 -263 367 -11 12 -43 45 -71 75 -59 62 -162 160 -215 204 l-36 30 -7 290
c-3 160 -8 310 -11 335 -16 159 -23 221 -36 305 -15 100 -18 117 -24 145 -2
14 -7 36 -9 50 -21 117 -100 431 -117 462 -5 10 -6 18 -2 18 4 0 2 5 -5 12 -7
7 -12 18 -12 26 0 7 -23 75 -51 149 -40 108 -48 138 -37 145 15 10 130 45 173
53 293 55 584 -19 883 -223 126 -86 313 -256 422 -382 43 -49 89 -106 119
-145 17 -22 36 -47 43 -54 7 -8 46 -62 86 -120 39 -57 72 -102 72 -98 0 8 -28
96 -40 122 -4 11 -25 63 -45 115 -38 98 -121 272 -155 325 -11 17 -23 37 -27
45 -12 27 -105 164 -157 230 -81 105 -185 214 -286 300 -36 30 -67 57 -70 60
-33 37 -253 184 -387 259 -77 43 -298 152 -368 181 -11 4 -36 15 -55 23 -140
60 -320 127 -535 199 -99 33 -184 61 -190 62 -40 9 -62 28 -122 108 -207 279
-496 588 -753 808 -14 12 -34 29 -45 38 -11 10 -48 41 -82 69 -34 28 -68 56
-75 62 -39 33 -189 149 -298 231 -69 51 -129 96 -133 100 -12 11 88 115 157
164 139 99 322 161 536 182 113 10 378 5 480 -10 19 -3 58 -8 85 -11 28 -3 68
-10 90 -15 22 -5 56 -11 75 -14 246 -39 798 -216 1097 -352 28 -13 54 -24 57
-24 2 0 57 -25 121 -55 203 -96 200 -96 114 -14 -161 154 -223 209 -339 302
-47 38 -92 74 -100 80 -8 7 -37 28 -65 47 -27 19 -52 38 -55 41 -9 10 -223
145 -300 189 -189 107 -491 238 -670 292 -68 20 -204 58 -230 63 -8 2 -37 9
-65 15 -27 6 -62 13 -77 15 -15 2 -31 6 -35 8 -7 4 -48 11 -143 23 -19 2 -53
7 -75 10 -174 27 -521 36 -777 20 -70 -4 -137 -9 -150 -11 -13 -2 -53 -6 -90
-10 -37 -3 -77 -8 -90 -10 -26 -4 -95 -13 -148 -20 -29 -4 -101 -17 -380 -71
-14 -2 -37 -7 -52 -10 -15 -3 -30 -6 -32 -6 -3 -1 -63 -15 -133 -33 l-128 -32
-185 91 c-198 98 -347 168 -475 223 -44 19 -98 43 -120 53 -45 19 -173 71
-315 125 -93 37 -457 157 -575 190 -33 10 -78 23 -101 31 -42 13 -177 50 -329
89 -49 13 -103 28 -120 35 -16 6 -30 11 -30 10 0 -5 -76 13 -80 19 -2 4 56 31
128 61 73 29 150 61 172 71 22 9 81 34 130 54 50 21 128 55 173 76 46 22 86
39 90 39 3 0 35 14 71 31 36 17 111 51 166 77 135 63 667 331 733 371 29 17
55 31 57 31 16 0 568 329 573 342 2 4 8 8 14 8 6 0 32 16 58 35 26 19 51 35
54 35 19 0 577 403 584 422 2 4 10 8 18 8 8 0 14 3 14 8 0 4 34 34 77 67 42
33 81 65 87 71 6 5 65 58 131 116 174 154 385 366 520 523 33 39 62 72 65 75
56 53 283 369 387 540 90 147 236 434 243 475 1 2 12 30 26 61 25 58 100 270
109 308 2 11 18 74 35 140 33 127 35 160 6 100z m-7756 -4379 c111 -6 145 -11
220 -29 l55 -13 -30 -12 c-108 -44 -229 -119 -330 -205 -65 -55 -66 -56 -206
-191 -270 -260 -323 -286 -586 -287 -206 0 -308 -24 -418 -97 -66 -44 -65 -44
-57 -24 4 10 24 52 46 93 174 339 270 460 455 573 117 72 286 150 334 155 6 1
46 8 142 28 17 3 77 8 135 11 58 2 110 6 115 7 6 2 15 2 20 0 6 -2 53 -6 105
-9z m-4177 -2412 c13 -8 16 -12 7 -13 -8 0 -62 -49 -120 -108 -58 -59 -131
-129 -162 -154 -60 -49 -163 -103 -213 -112 -16 -3 -41 -7 -55 -10 -14 -3 -39
-7 -57 -9 -18 -3 -47 -12 -64 -21 -18 -9 -35 -14 -37 -11 -11 11 29 114 66
171 81 123 254 255 362 274 67 12 247 8 273 -7z m5097 -10676 c8 -29 5 -5145
-2 -5153 -4 -4 -1142 -7 -2529 -7 -2458 1 -2523 1 -2525 19 -2 11 -6 39 -9 64
-6 47 -11 78 -20 120 -9 43 -15 102 -20 175 -6 99 -15 196 -21 225 -2 14 -7
47 -10 74 -3 28 -7 53 -9 56 -2 4 -6 36 -9 73 -4 37 -9 97 -12 135 -3 37 -8
90 -10 117 -5 75 -14 161 -24 245 -12 99 -18 184 -25 360 -3 80 -8 172 -11
205 -9 106 -20 421 -29 800 -9 393 -7 2498 3 2504 6 3 1191 6 2634 6 2522 0
2623 -1 2628 -18z m2553 14 c4 -1 7 -1277 7 -2836 l0 -2834 2688 0 c1478 0
2711 -1 2740 -1 29 0 51 -3 48 -8 -2 -4 -11 -41 -19 -82 -15 -72 -22 -112 -31
-192 -3 -21 -10 -47 -16 -58 -6 -11 -8 -20 -6 -20 3 0 2 -10 -3 -23 -5 -12
-12 -45 -15 -72 -4 -28 -20 -106 -36 -175 -16 -69 -31 -138 -34 -155 -3 -16
-15 -66 -26 -109 -12 -44 -23 -91 -25 -105 -2 -14 -13 -57 -24 -94 -11 -38
-22 -83 -25 -102 -3 -18 -12 -53 -20 -77 -19 -57 -38 -128 -41 -154 -2 -12
-12 -48 -23 -80 -18 -52 -67 -221 -77 -264 -2 -8 -22 -71 -44 -139 -23 -69
-41 -131 -41 -138 0 -7 -12 -13 -27 -14 -16 0 -1134 -1 -2485 -1 l-2458 -1 0
-3642 0 -3642 -102 -82 c-57 -45 -110 -87 -118 -94 -32 -26 -168 -125 -245
-177 -79 -54 -94 -65 -118 -85 -31 -26 -254 -165 -265 -165 -3 0 -13 -6 -21
-14 -28 -25 -185 -118 -200 -118 -9 -1 -71 34 -139 78 -67 43 -130 84 -140 89
-96 57 -465 323 -522 376 -10 9 -22 18 -27 20 -9 4 -36 26 -134 109 l-30 26 0
3657 0 3657 -22 4 c-12 3 -1128 4 -2480 3 l-2457 -2 -26 85 c-14 47 -34 110
-44 140 -57 172 -69 216 -95 325 -3 11 -11 40 -19 65 -19 59 -55 188 -62 220
-3 14 -16 67 -29 119 -14 51 -27 105 -30 120 -3 14 -9 41 -14 59 -5 17 -8 32
-5 32 3 0 0 8 -5 18 -12 23 -17 44 -45 199 -3 18 -10 43 -16 57 -5 15 -7 26
-5 26 2 0 0 12 -6 26 -5 15 -12 43 -15 63 -2 20 -9 56 -15 81 -5 25 -11 55
-14 68 -2 13 -7 32 -10 42 -9 30 -11 41 -51 295 l-5 30 2735 -2 2735 -2 0
2831 c0 1729 4 2834 10 2837 7 5 2010 6 2044 2z m5768 0 c4 -1 5 -562 3 -1248
-3 -1310 -6 -1603 -14 -1603 -3 0 -5 -60 -6 -133 0 -72 -4 -177 -8 -232 -8
-107 -12 -180 -21 -370 -12 -268 -15 -312 -21 -363 -3 -30 -7 -75 -9 -100 -4
-46 -13 -127 -20 -187 -2 -16 -7 -72 -10 -124 -3 -52 -8 -97 -10 -100 -2 -3
-6 -30 -9 -59 -3 -30 -8 -57 -10 -60 -2 -4 -7 -38 -10 -77 -3 -38 -8 -90 -10
-115 -3 -25 -7 -79 -11 -120 -3 -41 -12 -111 -20 -155 -8 -44 -16 -91 -18
-104 l-4 -24 -2522 0 c-1387 0 -2524 3 -2527 6 -9 9 -10 5167 -2 5170 7 2
5244 0 5259 -2z m-8320 -8231 c4 -16 4 -6367 1 -6378 -4 -13 -530 510 -702
698 -47 51 -94 102 -106 114 -11 11 -70 77 -129 146 -60 69 -114 130 -120 136
-6 6 -31 35 -56 64 -24 29 -48 58 -54 64 -59 66 -353 428 -455 561 -41 53 -80
102 -85 109 -6 6 -51 65 -100 131 -49 66 -92 122 -95 125 -3 3 -17 21 -30 40
-47 68 -135 185 -142 188 -5 2 -8 10 -8 17 0 7 -4 15 -8 17 -5 2 -41 50 -81
108 -40 58 -86 123 -102 145 -122 168 -592 888 -712 1090 -7 11 -22 34 -34 52
-13 17 -23 34 -23 37 0 3 -24 45 -53 93 -47 76 -91 151 -185 313 -29 48 -222
396 -303 545 -58 105 -261 517 -309 625 -23 52 -55 122 -70 155 -60 129 -130
291 -130 300 0 4 -12 35 -26 69 -14 33 -30 70 -34 81 -4 11 -19 47 -33 80 -39
94 -97 253 -97 267 0 11 370 14 2140 13 1177 0 2141 -2 2141 -5z m7341 -15
c-2 -11 -8 -24 -13 -29 -5 -6 -9 -19 -9 -30 0 -12 -12 -43 -25 -71 -14 -27
-25 -57 -25 -66 0 -9 -3 -19 -7 -23 -5 -4 -8 -11 -9 -14 0 -4 -9 -27 -21 -52
-11 -25 -24 -56 -28 -70 -4 -14 -15 -43 -25 -65 -10 -22 -39 -92 -65 -155 -26
-63 -53 -125 -61 -137 -8 -12 -14 -27 -14 -32 0 -6 -16 -45 -36 -88 -20 -43
-44 -96 -54 -118 -33 -74 -289 -589 -331 -665 -23 -41 -57 -96 -75 -123 -19
-26 -34 -50 -34 -53 0 -21 -298 -538 -470 -814 -29 -47 -73 -119 -98 -160 -25
-41 -48 -77 -51 -80 -3 -3 -15 -21 -26 -41 -11 -20 -43 -72 -72 -115 -29 -44
-95 -144 -147 -224 -52 -80 -100 -152 -106 -160 -6 -8 -18 -27 -28 -42 -46
-71 -126 -183 -134 -186 -4 -2 -8 -7 -8 -12 0 -5 -39 -64 -88 -132 -48 -68
-95 -134 -104 -148 -20 -29 -232 -317 -254 -343 -7 -9 -14 -21 -14 -26 0 -5
-3 -11 -8 -13 -6 -3 -144 -176 -260 -328 -19 -25 -37 -47 -41 -50 -3 -3 -26
-32 -51 -65 -24 -33 -53 -69 -65 -81 -11 -11 -33 -38 -50 -59 -16 -21 -37 -46
-45 -55 -8 -8 -70 -81 -137 -162 -67 -80 -132 -157 -145 -170 -13 -13 -52 -57
-88 -98 -36 -41 -74 -84 -85 -96 -11 -11 -40 -43 -63 -70 -180 -203 -798 -821
-810 -810 -3 3 -6 6101 -3 6316 l1 35 2143 0 c2132 0 2142 0 2139 -20z"/>
</g>
</svg>
