<?xml version="1.0" encoding="UTF-8" standalone="no"?>
<svg
   xmlns:dc="http://purl.org/dc/elements/1.1/"
   xmlns:cc="http://creativecommons.org/ns#"
   xmlns:rdf="http://www.w3.org/1999/02/22-rdf-syntax-ns#"
   xmlns:svg="http://www.w3.org/2000/svg"
   xmlns="http://www.w3.org/2000/svg"
   xmlns:sodipodi="http://sodipodi.sourceforge.net/DTD/sodipodi-0.dtd"
   xmlns:inkscape="http://www.inkscape.org/namespaces/inkscape"
   width="1762.8mm"
   height="824.18mm"
   version="1.1"
   viewBox="0 0 1762.8273 824.17706"
   id="svg46"
   sodipodi:docname="OSG_Letters.svg"
   inkscape:version="0.92.0 r15299">
  <metadata
     id="metadata52">
    <rdf:RDF>
      <cc:Work
         rdf:about="">
        <dc:format>image/svg+xml</dc:format>
        <dc:type
           rdf:resource="http://purl.org/dc/dcmitype/StillImage" />
        <dc:title></dc:title>
      </cc:Work>
    </rdf:RDF>
  </metadata>
  <defs
     id="defs50" />
  <sodipodi:namedview
     pagecolor="#ffffff"
     bordercolor="#666666"
     borderopacity="1"
     objecttolerance="10"
     gridtolerance="10"
     guidetolerance="10"
     inkscape:pageopacity="0"
     inkscape:pageshadow="2"
     inkscape:window-width="1920"
     inkscape:window-height="1017"
     id="namedview48"
     showgrid="false"
     inkscape:zoom="0.047579371"
     inkscape:cx="3331.2757"
     inkscape:cy="1557.5055"
     inkscape:window-x="-8"
     inkscape:window-y="-8"
     inkscape:window-maximized="1"
     inkscape:current-layer="svg46" />
  <g
     id="g44">
    <path
       d="m456.06 242.44q-5.3975 11.695-11.695 21.14-5.8473 8.9958-13.944 9.8954-7.1967 0.89961-12.144 1.3494-4.4979 0.44979-8.0962 0.44979-7.6465 0-7.6465-2.6988 0-2.249 3.1486-5.8473 3.1485-3.5983 6.2971-8.546 2.249-4.0481 5.3975-12.144 3.1485-8.546 6.2971-17.542 3.1485-9.4456 5.3975-17.542 2.249-8.546 2.6988-12.144 4.9477-17.092 9.4456-38.232 4.9477-21.59 4.9477-43.18 0-14.393-3.1485-26.988-2.6988-12.594-9.8954-22.939-0.44979-0.44979-0.44979-1.3494 0-2.6988 4.9477-2.6988 6.7469 0 18.891 5.3975 12.144 5.3975 20.69 14.843 2.6988 3.1485 4.4979 13.044 2.249 9.8954 2.249 20.241 0 2.249-0.44979 4.0481 0 1.3494 0 3.1485-1.3494 15.743-4.0481 32.385-2.6988 16.192-6.2971 31.935-3.1485 15.743-7.6465 29.686-4.0481 13.944-9.4456 24.289zm-144.83-125.49q-12.594 0-24.739-3.5983-12.144-3.5983-21.59-10.795-9.4456-7.6465-15.293-18.891-5.3975-11.695-5.3975-26.988 0-16.642 8.0962-27.437 8.546-10.795 20.241-17.092 12.144-6.7469 25.188-9.4456 13.494-2.6988 23.839-2.6988 26.538 0 49.927 8.9958 23.389 8.9958 45.879 19.791 22.49 10.795 44.979 19.791 22.939 8.9958 48.128 8.9958 8.0962 0 15.743-0.89958 8.0962-0.89958 14.843-3.5983 6.7469-3.1485 11.245-8.0963 4.9477-5.3975 6.2971-13.494v-1.7992q0-6.2971-4.0481-10.345-4.0481-4.0481-4.0481-5.3975 0-0.44979 1.3494-0.44979 0.89959 0 2.6988 0 1.7992 0 4.0481 0.89958 0.89958 0 8.5461 4.0481 7.6464 4.0481 16.642 10.795 8.9958 6.2971 16.192 14.393 7.1967 7.6465 7.1967 15.743 0 11.695-3.1485 18.441-3.1485 6.2971-8.0962 9.8954-4.9477 3.1485-11.695 4.0481-6.7469 0.89958-13.944 0.89958-2.6988 0-7.1967-0.89958-4.4979-1.3494-9.4456-2.6988t-9.8954-2.6988q-4.9477-1.7992-8.0962-3.1485-33.285-11.695-62.521-23.389-29.236-11.695-62.071-25.638-15.743-6.7469-33.285-11.245-17.542-4.4979-34.634-4.4979-19.791 0-32.385 5.3975-12.144 4.9477-19.341 13.044-6.7469 7.6465-9.4456 16.642-2.249 8.546-2.249 15.743 0 13.044 7.1967 25.188 7.1967 12.144 24.289 22.49z"
       id="path2" />
    <path
       d="m653.19 322.17q-7.1084 1.9138-13.123 3.5542-5.7415 1.6404-10.663 1.6404-9.5691 0-15.311-6.0149-5.468-5.7415-5.468-15.857 0-6.8351 1.0936-12.03 3.8276-16.131 6.0149-32.262 2.1872-16.404 4.3745-32.808 0.27339-1.6404 0.27339-3.2808 0.2734-1.6404 0.2734-3.5542 0-2.1872-0.54679-6.0149-0.54682-4.101-2.1872-7.9287-1.6404-4.101-4.3744-6.8351-2.734-3.0074-7.1085-3.0074-1.9138 0-3.0074 0.27341-3.0074 0.82021-5.1946 1.9138-1.9138 1.0936-3.5542 2.4606-1.6404 1.0936-1.6404 2.4606 2.734-10.116 9.2957-14.764 6.8351-4.9212 14.764-4.9212 5.4681 0 10.936 2.4606 5.4681 2.1872 9.5691 6.8351 4.3745 4.3744 7.1085 11.21 2.734 6.5617 2.734 15.311 0 8.7489-1.367 18.318-1.367 9.2957-3.2808 19.138-1.9138 9.5691-4.3745 19.412-2.1872 9.5691-3.8276 18.865-0.27342 1.367-0.27342 4.101 0 4.101 1.6404 7.1085 1.6404 3.0074 4.101 5.468 2.734 2.4606 6.0149 4.3745 3.5542 2.1872 7.1084 4.3744zm-53.04-199.86q-3.8276 23.513-8.2021 46.752-4.3744 22.966-8.4755 46.478-3.0074 16.951-4.3744 27.34-1.0936 10.389-3.8276 17.224-2.4606 6.5617-8.4755 10.663-6.0148 3.8276-18.591 7.6553-1.367-3.5542-1.367-6.2883 0-5.4681 2.1872-10.389 2.1872-4.9212 2.4606-10.116 6.5617-28.16 10.389-56.321 3.8276-28.434 9.2957-56.868 0.2734-1.367 0.2734-2.734 0.27339-1.6404 0.27339-3.0074 0-4.9212-2.734-8.4755-2.734-3.5542-10.389-4.101 2.734-3.2808 6.5617-6.0149 3.8276-3.0074 7.6553-4.9212 4.101-1.9138 7.6553-3.0074 3.5542-1.0936 5.7415-1.0936 5.4681 0 9.8425 4.3744 4.3745 4.3744 4.3745 10.389 0 0.5468-0.27342 1.367 0 0.54681 0 1.0936z"
       id="path4" />
    <path
       d="m739.69 217.18h-2.1872l-9.2957 3.2808q-4.6478 1.6404-9.0223 3.0074-4.101 1.0936-8.4755 1.0936-0.54681 0.2734-1.0936 0.2734-0.27342-0.2734-1.0936 0 0 0.27341-0.27339 0.54681t-0.54682 0.2734q-0.27339 0-0.54678 0.54681-1.6404 1.367-4.1011 1.6404-2.1872 0.2734-4.3744 0.8202-2.1872 0.27341-3.8276 1.367-1.6404 0.82021-1.9138 3.5542l-0.8202 1.6404q0 7.9287 2.734 13.123 2.734 4.9212 6.8351 7.9287 4.3744 2.734 9.2957 3.8276 5.1947 0.82021 9.8425 0.82021h3.8276q0.54681 0 3.5542-0.27341 3.0074-0.2734 6.5617-0.5468 3.5542-0.54681 6.5617-0.82021 3.0074-0.54681 3.5542-0.54681-3.0074 4.3744-9.2957 7.9287-6.0148 3.5542-13.123 6.2883-7.1084 2.4606-14.217 3.8276-7.1085 1.367-12.03 1.367-5.1946 0-10.936-1.367-5.7415-1.6404-10.663-4.6478t-8.2021-7.6553q-3.2808-4.6478-3.2808-11.21 0-5.7415 1.9138-12.85 2.1872-7.1085 6.5617-14.49 4.6478-7.6553 11.756-15.037 7.3819-7.6553 18.045-14.217 6.5617-2.734 11.483-4.101 5.1946-1.6404 9.8425-1.9138 4.9212-0.54681 9.2957 0.54681 4.6479 0.82021 9.8425 3.2808 4.6479 2.1872 8.2021 5.4681 3.5542 3.2808 3.2808 8.7489 0 2.734-1.367 4.3744-1.367 1.367-3.5542 2.1872-1.9138 0.5468-4.3744 1.0936-2.1872 0.2734-4.3745 0.8202zm-30.621 7.3819h-0.2734q0.82021-1.9138 1.9138-2.734 1.367-1.0936 2.734-1.367 1.6404-0.54681 3.2808-0.82021 1.6404-0.2734 3.2808-0.82021 5.1947-1.9138 6.0149-5.4681 0.82021-3.5542-1.9138-7.3819-1.9138-3.0074-4.6478-4.9212-11.756-1.9138-17.498 2.734-5.7415 4.6478-7.6553 12.03v3.8276q0.27339 4.101 1.9138 4.9212 1.6404 0.54681 3.5542 0 2.1872-0.5468 4.3745-1.0936 2.1872-0.54681 3.5542 0.54681 0.27343 0 0.54682 0.2734t0.54681 0.2734l-0.27342 0.2734q0.27342 0 0.27342 0 0-0.2734 0.2734-0.2734z"
       id="path6" />
    <path
       d="m1155.3 181.72q-13.044 19.341-27.437 34.634-13.944 14.843-31.485 26.088-17.092 10.795-38.682 18.441-21.14 7.1967-48.578 11.245-21.14 3.1485-39.132 0.89958-17.542-2.6988-31.036-11.695-13.044-9.4456-21.14-25.188-8.0962-16.193-8.9958-40.031-0.89958-22.04 5.3975-45.429 6.2971-23.839 17.542-44.979 11.695-21.14 27.437-38.232 16.192-17.542 34.634-27.437 14.393-6.7469 31.036-11.695 17.092-4.9477 41.381-8.546-18.891 6.7469-33.734 16.642-14.393 9.4456-26.088 21.14-11.695 11.245-21.14 24.289-9.4456 12.594-18.441 26.088-9.8954 16.642-13.494 33.285-3.1485 16.642-1.7992 34.184 1.3494 16.192 8.0962 28.787 7.1967 12.594 17.542 21.14 10.345 8.0962 22.939 13.044 13.044 4.4979 25.188 5.3975 12.144 0.89959 26.988-4.4979 15.293-5.3975 28.787-13.944 13.944-8.9958 24.289-19.791 10.795-11.245 13.944-22.04 3.5983-10.345 6.297-20.69 3.1486-10.345 4.498-20.69 1.3494-12.594-1.3494-25.188-2.249-12.594-9.4456-23.389-7.1967-11.245-19.791-20.241-12.144-9.4456-31.036-16.192 10.345-11.245 23.839-16.193 13.944-4.9477 31.935 0 18.441 5.3975 30.136 20.241 12.144 14.393 16.193 34.184 4.4978 19.341 0.4497 42.28-3.5983 22.49-15.743 44.08z"
       id="path8" />
    <path
       d="m1289.4 195.85q-2.1873 5.7415-6.2883 9.8425-3.8276 4.101-9.0223 6.5617-4.9212 2.4606-10.663 3.0074-5.7415 0.5468-11.483-1.367-7.1085-2.734-11.756-4.101-4.6479-1.6404-7.9287-0.82021t-5.7415 4.3744q-2.1872 3.2808-4.9212 10.663-0.2734 1.0936-0.8203 3.8276-3.0073 8.2021-4.101 16.678-1.0936 8.4755-2.1872 16.951-0.5468 3.2808-4.6479 6.5617-3.8276 3.2808-8.7489 5.7414-4.9212 2.4606-9.8425 3.2808-4.9212 0.82021-7.6552-0.82021t-2.4606-4.101q0.5468-2.4606 1.0936-4.6479 3.0074-12.85 6.0148-25.426 3.0074-12.85 6.0149-25.973 2.4606-4.9213 6.0148-7.9287 3.8277-3.0074 7.9287-4.9212 4.3745-1.9138 9.0223-3.2808 4.6479-1.367 9.2957-3.0074 5.1947-0.54681 11.756 0.2734 6.5616 0.82021 11.756 0 3.5542-1.6404 6.5616-3.5542 3.0075-1.9138 6.0149-3.5542 3.0074-1.6404 6.2883-2.4606 3.5542-1.0936 8.202-0.82021 3.2809 0.27341 6.0149 0.27341 3.0074 0 4.6478 0.5468 1.9139 0.54681 2.4607 2.4606 0.5468 1.9138-0.8202 5.7415z"
       id="path10" />
    <path
       d="m1413 266.94q-2.1873 3.0074-5.7415 3.8276-3.2808 0.54681-6.2883 1.6404-7.9286 3.0074-12.85 3.8276-4.9212 0.54681-7.9287-1.367-3.0074-1.9138-4.3744-6.5617-1.0936-4.9212-1.367-13.123 0-2.1872 0-4.101 0.2734-1.9138 0.2734-4.101-0.2734-2.1872 0.2734-4.101 0.5468-2.1872-1.9138-3.5542-2.1872-1.0936-3.8277 1.367-1.367 2.4606-3.2808 3.2808-3.0074 1.9138-5.7415 4.101-2.4606 1.9138-6.5616 3.0074 12.576-12.85 20.232-28.16 7.6553-15.584 12.303-31.988 4.6479-16.404 7.6553-33.082 3.0074-16.951 6.2883-32.535-1.9139-1.0936-3.5543-0.82021-1.6404 0-3.2808 0.5468-1.3671 0.54681-3.0074 1.0936-1.6405 0.2734-3.5543-0.82021 6.8351-9.2957 15.857-14.764 9.0222-5.468 19.685-8.7489l9.8425 0.82021q-7.1085 32.808-14.217 63.976t-13.397 60.969q-3.0074 13.944-1.6404 24.059 1.6404 9.8425 10.116 15.311zm-36.909-65.617q-4.6479 1.367-9.0223 3.2808-4.3744 1.6404-9.0223 1.6404-4.6478 0-10.116-2.4606-5.468-2.734-10.116-2.734-5.468 0-10.663 3.0074-5.1946 3.0074-9.5691 7.9287t-7.1085 10.936q-2.4606 6.0149-2.4606 12.03 0 7.9287 2.734 13.123 2.7341 4.9212 6.8351 7.9287 4.3745 2.734 9.2957 3.8276 5.1946 0.8202 9.8425 0.8202h3.8276q1.367 0 2.1872 0 1.0937 0 2.4607-0.2734-5.7415 8.7489-14.764 13.123-8.7489 4.3744-18.318 4.3744-5.1946 0-10.936-1.367-5.7414-1.6404-10.663-4.6478-4.9212-3.0074-8.2021-7.6553-3.2808-4.6478-3.2808-11.21 0-12.03 5.7415-21.599 5.7414-9.8425 13.67-19.138 6.8351-3.2808 14.49-7.6553 7.9287-4.3744 15.584-8.2021 7.9287-4.101 15.311-6.5617 7.6553-2.734 14.217-2.734 2.7341 0 6.8351 0.2734 4.3744 0 8.2021 0.82021 4.101 0.8202 6.8351 2.734 3.0074 1.9138 3.0074 5.4681 0 2.1872-2.4606 3.5542-2.1873 1.0936-4.3745 1.367z"
       id="path12" />
    <path
       d="m1507 217.18h-2.1872l-9.2957 3.2808q-4.6478 1.6404-9.0223 3.0074-4.101 1.0936-8.4755 1.0936-0.5468 0.2734-1.0935 0.2734-0.2735-0.2734-1.0937 0 0 0.27341-0.2734 0.54681t-0.5468 0.2734-0.5468 0.54681q-1.6404 1.367-4.101 1.6404-2.1873 0.2734-4.3745 0.8202-2.1872 0.27341-3.8276 1.367-1.6404 0.82021-1.9139 3.5542l-0.8201 1.6404q0 7.9287 2.734 13.123 2.734 4.9212 6.8351 7.9287 4.3744 2.734 9.2957 3.8276 5.1946 0.82021 9.8425 0.82021h3.8276q0.5468 0 3.5542-0.27341 3.0075-0.2734 6.5617-0.5468 3.5542-0.54681 6.5617-0.82021 3.0074-0.54681 3.5542-0.54681-3.0074 4.3744-9.2957 7.9287-6.0148 3.5542-13.123 6.2883-7.1084 2.4606-14.217 3.8276-7.1084 1.367-12.03 1.367-5.1947 0-10.936-1.367-5.7415-1.6404-10.663-4.6478-4.9213-3.0074-8.2021-7.6553-3.2808-4.6478-3.2808-11.21 0-5.7415 1.9138-12.85 2.1872-7.1085 6.5617-14.49 4.6478-7.6553 11.756-15.037 7.3818-7.6553 18.045-14.217 6.5616-2.734 11.483-4.101 5.1946-1.6404 9.8425-1.9138 4.9212-0.54681 9.2957 0.54681 4.6478 0.82021 9.8425 3.2808 4.6478 2.1872 8.202 5.4681 3.5543 3.2808 3.2809 8.7489 0 2.734-1.367 4.3744-1.367 1.367-3.5543 2.1872-1.9138 0.5468-4.3744 1.0936-2.1872 0.2734-4.3745 0.8202zm-30.621 7.3819h-0.2734q0.8203-1.9138 1.9138-2.734 1.3671-1.0936 2.7341-1.367 1.6404-0.54681 3.2808-0.82021t3.2808-0.82021q5.1947-1.9138 6.0149-5.4681 0.8202-3.5542-1.9138-7.3819-1.9138-3.0074-4.6478-4.9212-11.756-1.9138-17.498 2.734-5.7415 4.6478-7.6553 12.03v3.8276q0.2734 4.101 1.9138 4.9212 1.6404 0.54681 3.5543 0 2.1872-0.5468 4.3744-1.0936t3.5542 0.54681q0.2734 0 0.5468 0.2734t0.5468 0.2734l-0.2734 0.2734q0.2734 0 0.2734 0 0-0.2734 0.2734-0.2734z"
       id="path14" />
    <path
       d="m1638.6 195.85q-2.1872 5.7415-6.2882 9.8425-3.8277 4.101-9.0223 6.5617-4.9213 2.4606-10.663 3.0074-5.7414 0.5468-11.483-1.367-7.1085-2.734-11.756-4.101-4.6478-1.6404-7.9286-0.82021-3.2809 0.82021-5.7415 4.3744-2.1872 3.2808-4.9213 10.663-0.2733 1.0936-0.8202 3.8276-3.0074 8.2021-4.101 16.678t-2.1872 16.951q-0.5468 3.2808-4.6479 6.5617-3.8276 3.2808-8.7489 5.7414-4.9212 2.4606-9.8425 3.2808-4.9212 0.82021-7.6553-0.82021-2.734-1.6404-2.4606-4.101 0.5468-2.4606 1.0936-4.6479 3.0075-12.85 6.0149-25.426 3.0074-12.85 6.0149-25.973 2.4606-4.9213 6.0148-7.9287 3.8277-3.0074 7.9287-4.9212 4.3745-1.9138 9.0223-3.2808 4.6478-1.367 9.2957-3.0074 5.1946-0.54681 11.756 0.2734t11.756 0q3.5542-1.6404 6.5617-3.5542 3.0074-1.9138 6.0149-3.5542 3.0074-1.6404 6.2882-2.4606 3.5543-1.0936 8.2021-0.82021 3.2809 0.27341 6.0149 0.27341 3.0074 0 4.6478 0.5468 1.9138 0.54681 2.4607 2.4606 0.5468 1.9138-0.8203 5.7415z"
       id="path16" />
    <path
       d="m151.34 632.71q-19.491-1.1466-41.848-4.0129-22.357-3.4396-43.568-11.465-20.638-8.0257-37.835-22.357-17.198-14.332-25.797-37.262-2.293-5.7326-2.293-9.7455 0-16.625 8.599-30.383 8.599-13.758 21.784-24.077 13.758-10.892 29.81-18.918 16.625-8.0257 32.103-12.612 16.051-5.1594 29.236-7.4524 13.758-2.8663 20.638-2.8663 9.7455 0 18.918 2.293 9.7455 2.2931 16.625 6.3059 7.4524 4.0128 11.465 9.1722 4.5861 4.5861 4.5861 10.319 0 5.1594-5.1594 8.599-4.5861 3.4396-11.465 5.7326-6.8792 2.2931-14.905 3.4396-8.0257 1.1465-14.905 1.1465-13.758 0-18.344-1.1465-4.0128-1.1465-5.7326-5.7326-3.4396-10.319-8.0257-15.478-4.5861-5.7326-8.599-5.7326-8.0257 0-14.905 6.8792-6.3059 6.3059-11.465 15.478-4.5861 9.1722-7.4524 19.491-2.293 10.319-2.293 17.771 0 19.491 12.039 35.542 12.039 16.051 29.81 28.09 17.771 11.465 38.409 18.344 20.637 6.3059 37.835 6.3059 31.53 0 51.594-7.4524 20.638-7.4524 33.823-18.344 13.185-11.465 20.064-24.65 7.4524-13.758 12.039-25.797 1.1465-2.8663 1.7198-6.8792 0.57327-4.0129 0.57327-8.0257 0-14.905-6.8792-26.943-6.3059-12.039-14.332-21.784-12.039-14.905-28.663-22.931-16.625-8.599-31.53-14.332-13.185-5.1594-26.37-10.319-12.612-5.1594-22.931-12.039-10.319-6.8792-16.625-14.905-6.3059-8.599-6.3059-20.064 0-2.2931 1.1465-5.7326 1.1465-4.0128 2.2931-8.599 0.57326-0.57324 0.57326 0 0.57327 0 0.57327-0.57324 0.57326-0.57327 0.57326-2.8663 0.57328-2.293 0.57328-8.599 0-6.3059-3.4396-9.1722-5.1594-5.1594-10.319-10.319-5.1594-5.7326-5.1594-8.599 0-7.4524 15.478-13.185 15.478-5.7326 36.116-5.7326 11.465 0 13.758 2.8663 2.8663 2.2931 4.5861 5.1594 1.1465 2.2931 2.2931 4.5861 1.1465 1.7198 0.57324 2.8663l1.1466-0.57328q14.905-6.3059 34.969-12.612 20.064-6.8792 37.262-6.8792 9.7455 0 18.918 3.4396 9.1722 3.4396 9.1722 12.039 0 6.3059-9.1722 13.185-9.1722 6.3059-22.357 12.039-13.185 5.7326-28.663 10.319-14.905 4.5861-26.943 6.3059-5.1594 1.1465-5.1594 9.7455 0 9.7455 5.1594 17.771 5.1594 8.0257 12.612 14.332 7.4524 5.7326 15.478 9.7455 8.599 4.0129 15.478 5.7326 16.051 4.5861 33.823 13.185t32.676 21.211q14.905 12.039 24.65 28.09 9.7455 16.051 9.7455 35.542 0 6.3059-2.293 14.332-2.2931 7.4524-7.4524 14.332h1.1465q-14.332 26.943-36.689 42.995-22.357 16.051-47.581 25.224-24.65 8.599-49.874 12.039-24.65 2.8663-43.568 2.8663-5.1594 1.1465-12.039 1.7198-6.3059 0-13.185 0-2.293 0-4.5861 0.57328-2.293 0-5.1594 0zm95.735-288.35q1.7198 0.57327 4.0128 0.57327h-4.5861q0.57325 0 0.57325-0.57327zm-4.5861-0.57327q1.1465 0.57327 4.5861 0.57327l17.198-8.599q2.2931-2.2931 0.57327-4.0128-1.7198-2.293-4.5861-3.4396-2.8663-1.7198-5.7326-2.293-2.2931-1.1466-1.7198-1.1466-2.8663 0-8.599 3.4396-5.1594 2.8663-5.1594 9.1722 0 4.5861 1.1465 5.7326 1.1465 0.57325 2.2931 0.57325z"
       id="path18" />
    <path
       d="m474.94 556.75q-4.6478 1.367-9.0223 3.2808-4.3745 1.6404-9.0223 1.6404-4.6478 0-10.116-2.4606-5.4681-2.734-10.116-2.734-5.4681 0-10.663 3.0074-5.1947 3.0074-9.5691 7.9287t-7.1085 10.936q-2.4606 6.0148-2.4606 12.03 0 7.9287 2.734 13.123 2.734 4.9212 6.8351 7.9287 4.3744 2.734 9.2957 3.8276 5.1947 0.82021 9.8425 0.82021h3.8276q1.367 0 2.1872 0 1.0936 0 2.4606-0.2734-5.7415 8.7489-14.764 13.123-8.7489 4.3744-18.318 4.3744-5.1946 0-10.936-1.367-5.7414-1.6404-10.663-4.6478t-8.2021-7.6553q-3.2808-4.6478-3.2808-11.209 0-12.03 5.7415-21.599 5.7415-9.8425 13.67-19.138 6.8351-3.2808 14.49-7.6553 7.9287-4.3745 15.584-8.2021 7.9287-4.101 15.311-6.5617 7.6553-2.734 14.217-2.734 2.734 0 6.8351 0.27342 4.3744 0 8.2021 0.82021 4.101 0.82021 6.8351 2.734 3.0074 1.9138 3.0074 5.4681 0 2.1872-2.4606 3.5542-2.1872 1.0936-4.3744 1.367zm30.621 65.617q-16.951 13.123-27.067 13.123-11.756 0-15.857-17.498 0.54682-1.367 0.54682-2.1872 0-1.0936 0-2.1872 0-2.734-1.9138-2.734-0.8202 0-2.4606 1.0936-1.6404 0.82021-4.3745 0.82021-1.9138 0-1.9138-1.367 0-1.0936 0.54681-1.9138l2.1872-3.0074q3.8276-5.1946 7.6553-10.116 4.101-5.1946 8.7489-9.2957 4.9212-4.101 10.663-7.1085 6.0148-3.0074 13.397-4.101 0 6.2883-1.9138 13.944-1.6404 7.3819-1.6404 14.49 0 5.468 2.734 10.116 2.734 4.3744 10.663 7.9287z"
       id="path20" />
    <path
       d="m539.36 610.61v1.9138q0 4.3744 1.6404 7.6553 1.6404 3.2808 7.1085 4.101-0.82021 1.367-4.101 3.0074-3.0074 1.6404-6.8351 3.0074-3.8276 1.367-7.9287 2.4606-3.8276 0.82021-6.0149 0.82021-3.8276 0-6.5617-1.367-2.734-1.6404-4.6479-3.8276-1.6404-2.1872-2.734-4.6479-0.82021-2.734-0.82021-5.1946 0-5.4681 2.1872-11.483 2.1872-6.0148 2.734-11.483 8.4755-19.685 8.4755-33.902 0-9.5691-4.101-15.857 4.9212-1.367 9.5691-2.1872 4.6478-1.0936 9.0223-3.2808 2.1872-1.0936 3.8276-1.6404 1.9138-0.82021 4.101-0.82021 3.8276 0 7.1085 4.3744 3.5542 4.3744 3.5542 9.5691 0 2.4606-0.82021 4.9212-3.8276 13.397-8.4755 26.793-4.3744 13.123-6.2883 27.067zm16.404-99.792q1.0936 0.54679-1.367 1.9138-2.1872 1.0936-6.0149 2.4606-3.5542 1.0936-7.3819 2.1872-3.5542 0.82021-5.468 0.82021-8.2021 0.54679-10.389-3.2808-1.9138-3.8276-1.6404-8.4755 0.54681-4.9212 1.0936-8.7489 0.54681-4.101-2.4606-3.8276 3.8276-1.0936 7.6553-1.9138 3.8276-1.0936 7.3819-2.734 1.6404-0.54679 3.0074-1.0936 1.6404-0.82021 3.5542-1.0936 5.468-0.27342 6.2882 2.4606 0.82021 2.734 0.27342 6.5617-0.27342 3.8276 0 8.2021 0.54679 4.101 5.468 6.5617z"
       id="path22" />
    <path
       d="m755.91 700.02q1.6404-0.27342 4.101-1.0936 2.734-0.82021 5.4681-1.6404t5.1946-1.6404q2.4606-0.54678 3.8276-0.54678t1.367 0.54678q0 1.367-1.367 1.9138-13.397 5.7415-27.067 8.7489-13.67 3.2808-27.614 3.2808-14.764 0-31.715-5.1946-16.678-4.9212-30.895-14.764-13.944-9.8425-23.513-24.333-9.2957-14.217-9.2957-32.808 0-8.2021 1.6404-16.131 1.9138-8.2021 4.101-16.131 2.4606-8.2021 4.101-16.131 1.9138-8.2021 1.9138-16.678 0-4.9212-2.4606-8.4755-2.1872-3.8276-9.8425-3.8276-4.3744 0-7.1084 1.6404-2.734 1.6404-4.6479 4.6478-1.9138 3.0074-3.5542 7.3819-1.6404 4.3745-3.5542 10.116-1.0936 4.101-2.4606 9.5691-1.367 5.1947-3.0074 10.936-1.367 5.7415-2.734 11.483-1.367 5.468-2.1872 10.389-1.367 7.9287-7.9287 9.5691-3.2808 0.54681-6.8351 2.1872-3.2808 1.6404-6.2882 1.6404-2.4606 0-4.6479-1.367-1.9138-1.6404-1.367-3.2808 1.9138-7.6553 3.8276-16.678 2.1872-9.2957 4.101-18.318 2.1872-9.0223 4.101-17.224 2.1872-8.2021 4.101-14.217 1.367-4.6478 1.367-6.8351 0-2.4606-1.6404-3.8276-1.6404-1.367-5.7415-1.367-1.367 0-3.0074 0.27342-1.367 0-3.0074 0.2734 4.3745-4.101 9.0223-6.5617 4.6479-2.4606 9.0223-3.8276 4.6478-1.367 9.0223-2.1872 4.6478-0.82021 9.0223-1.9138h1.0936q2.734 0 3.8276 1.9138 1.367 1.9138 1.9138 4.3744 0.8202 2.4606 1.9138 4.3744 1.0936 1.9138 3.5542 1.9138 2.1872 0 4.6478-0.8202 2.734-1.0936 4.9212-1.6404 4.3745-0.54681 8.4755-1.0936 4.3744-0.82021 9.0223-0.82021 9.5691 0 13.67 4.3745 4.101 4.101 4.101 13.944 0 8.2021-1.9138 16.404-1.9138 8.2021-4.101 16.404-2.1872 8.2021-4.101 16.131-1.9138 7.6553-1.9138 15.037 0 18.045 10.116 32.808 10.116 15.037 30.348 28.16 10.116 6.5617 19.685 9.8425 9.8425 3.5542 21.325 3.5542 10.116 0 21.599-2.4606z"
       id="path24" />
    <path
       d="m710.48 611.71v1.9138q0 4.3744 1.367 7.6553 1.6404 3.2808 7.1084 4.3745-0.8202 1.367-4.101 3.0074-3.0074 1.367-7.1084 2.734-3.8276 1.367-7.9287 2.1872-3.8276 0.82021-6.0148 0.82021-3.8276 0-6.5617-1.6404-2.4606-1.6404-4.3745-3.8276-1.6404-2.4606-2.4606-4.9212-0.82021-2.734-0.82021-5.1947 0-2.734 0.82021-6.5617 0.82021-3.8276 1.9138-7.9287 1.0936-4.101 1.9138-7.9287 1.0936-4.101 1.6404-6.8351 1.0936-2.4606 2.4606-7.6553 1.6404-5.468 3.0074-12.577 1.6404-7.1085 3.2808-15.857 1.6404-8.7489 3.2808-17.771h-0.27342v-1.367q0-3.8276-3.0074-5.468-2.734-1.6404-6.5617-3.8276l12.577-4.9212q2.1872-14.217 3.8276-23.786 1.6404-9.8425 1.9138-12.85 0-2.4606-1.0936-4.3744-1.0936-1.9138-2.734-3.2808-1.367-1.6404-3.0074-3.0074-1.6404-1.367-2.4606-3.0074 1.0936-0.82021 4.3744-3.0074 3.5542-2.1872 7.9287-4.101 4.6478-1.9138 9.8425-2.734 5.468-1.0936 10.389 0.27339 3.5543 0.82021 6.2883 6.0148 2.734 5.1947 1.0936 13.397l-7.6553 33.629q1.0936 2.734 6.0149 2.734 3.8276 0 7.9287-0.82021 4.101-1.0936 8.4755-1.0936 3.2808 0 7.3819 1.367-3.8276 4.6479-8.4755 6.5617-4.3744 1.9138-9.5691 1.9138h-4.101q-5.7415 0-8.2021 3.0074-2.1872 3.0074-3.5542 9.0223h-0.54682q-2.1872 11.21-4.3744 22.966-2.1872 11.483-4.3744 22.146-1.9138 10.389-3.5542 18.591-1.367 7.9287-1.9138 12.03z"
       id="path26" />
    <path
       d="m1198.3 455q-1.1466 0.57325-2.8664 0.57325-2.293 0-2.293-3.4396 2.293-20.638 2.8663-37.835 1.1465-17.771-5.1594-32.103-5.7326-14.905-21.784-26.943-15.478-12.612-47.008-22.931-3.4396-1.1465-6.8792-2.2931-3.4396-1.1465-8.0257-1.1465-2.8663 0-8.0257 0.57327-4.5861 0.57325-13.758 0.57325-14.905 0-32.676 8.0257-17.198 8.0257-35.542 21.211-17.771 13.185-34.969 30.383-16.625 17.198-29.81 36.116t-21.211 38.409q-8.0257 18.918-8.0257 35.542 0 25.224 9.7455 44.141 10.319 18.344 26.943 30.956 16.625 12.039 38.982 18.344 22.357 5.7326 47.008 5.7326 17.771 0 36.116-2.8663 18.918-2.8663 37.262-9.1722-6.3059 11.465-23.504 20.638-16.625 8.599-37.835 14.332-20.638 5.7326-41.848 8.599-21.211 2.8663-35.542 2.8663-17.198 0-37.262-5.1594-19.491-5.1594-36.689-15.478-16.625-10.892-28.09-27.517-10.892-16.625-10.892-38.982 0-28.09 9.7455-56.18 9.7454-28.09 26.943-53.314 17.198-25.224 40.702-46.434 23.504-21.784 51.594-37.835 21.211-12.039 37.835-20.064 16.625-8.0257 31.53-13.185 15.478-5.1594 30.383-6.8792 15.478-2.2931 32.676-2.2931 19.491 0 41.275 2.8663 22.357 2.8663 40.128 10.892 18.344 7.4524 30.383 21.784 12.038 13.758 12.038 36.116 0 15.478-11.465 34.396-11.465 18.344-42.995 38.982zm6.3059 92.869q0 5.1594-0.5733 13.185 0 8.0257-0.5732 17.198-0.5733 8.599-1.7199 17.771-0.5732 8.599-1.1465 16.051l-17.771 88.283q-11.465 40.702-38.982 63.632-26.943 22.931-73.951 35.542 15.478-17.198 28.09-33.249 12.612-15.478 18.344-35.542 10.892-38.409 16.051-59.619 5.7326-20.638 8.0257-33.249 2.2931-12.612 2.2931-21.784 0-9.1722 1.1465-24.077 0-12.612-8.599-12.612-2.2931 0-4.5861 0.57327-2.2931 0.57327-5.1593 1.7198 0-2.8663 6.3058-6.8792 6.8792-4.5861 17.771-9.1722 11.465-4.5861 25.797-9.1722 14.332-4.5861 29.236-8.599zm-158.22 253.38q-2.293 6.3059-8.5989 11.465-6.306 5.1594-15.478 6.3059-3.4395 0.57327-10.319 1.1466-6.3059 1.1465-13.185 1.7198-6.8792 1.1465-13.185 1.7198-5.7326 0.57325-8.599 0.57325-3.4396 0-8.599-6.3059-5.1594-6.3059-9.7454-14.905-4.0129-8.599-7.4525-17.198-2.8663-8.599-2.8663-13.185 0-8.0257 2.8663-14.905 3.4396-6.8792 8.0257-13.758 11.465-15.478 25.797-26.37 14.332-10.892 29.81-19.491 15.478-8.0257 32.103-14.905 16.625-6.8792 33.249-14.332-9.1723 4.0128-22.357 13.185-13.185 9.1722-25.797 20.064-12.038 10.892-20.638 21.784-8.599 10.892-8.599 18.344 0 25.224 9.1723 37.835 9.1722 13.185 34.396 21.211z"
       id="path28" />
    <path
       d="m1318.2 572.61h-2.1873l-9.2957 3.2808q-4.6478 1.6404-9.0223 3.0074-4.101 1.0936-8.4754 1.0936-0.5468 0.27339-1.0936 0.27339-0.2735-0.27339-1.0937 0 0 0.27342-0.2733 0.54682-0.2735 0.27339-0.5468 0.27339-0.2735 0-0.5469 0.54682-1.6404 1.367-4.101 1.6404-2.1872 0.2734-4.3745 0.82021-2.1872 0.27339-3.8276 1.367-1.6404 0.82021-1.9138 3.5542l-0.8202 1.6404q0 7.9287 2.734 13.123 2.734 4.9212 6.8351 7.9287 4.3744 2.734 9.2957 3.8276 5.1946 0.82021 9.8425 0.82021h3.8276q0.5468 0 3.5542-0.27339 3.0075-0.2734 6.5617-0.54682 3.5543-0.54679 6.5617-0.82021 3.0074-0.54679 3.5542-0.54679-3.0074 4.3744-9.2957 7.9287-6.0148 3.5542-13.123 6.2883-7.1085 2.4606-14.217 3.8276-7.1085 1.367-12.03 1.367-5.1946 0-10.936-1.367-5.7414-1.6404-10.663-4.6479-4.9212-3.0074-8.2021-7.6553-3.2808-4.6478-3.2808-11.21 0-5.7415 1.9138-12.85 2.1872-7.1084 6.5617-14.49 4.6478-7.6553 11.756-15.037 7.3818-7.6553 18.045-14.217 6.5616-2.734 11.483-4.101 5.1947-1.6404 9.8425-1.9138 4.9212-0.54681 9.2957 0.54679 4.6478 0.82021 9.8425 3.2808 4.6478 2.1872 8.2021 5.4681 3.5542 3.2808 3.2808 8.7489 0 2.734-1.367 4.3744-1.367 1.367-3.5542 2.1872-1.9139 0.54679-4.3745 1.0936-2.1872 0.27339-4.3744 0.8202zm-30.621 7.3819h-0.2734q0.8202-1.9138 1.9138-2.734 1.367-1.0936 2.734-1.367 1.6404-0.54682 3.2808-0.82021 1.6404-0.2734 3.2809-0.82021 5.1946-1.9138 6.0148-5.4681 0.8202-3.5542-1.9138-7.3819-1.9138-3.0074-4.6478-4.9212-11.756-1.9138-17.498 2.734-5.7415 4.6478-7.6553 12.03v3.8276q0.2734 4.101 1.9138 4.9212 1.6405 0.54681 3.5543 0 2.1872-0.54682 4.3744-1.0936 2.1872-0.54682 3.5543 0.54678 0.2733 0 0.5468 0.27342 0.2733 0.2734 0.5468 0.2734l-0.2735 0.27339q0.2735 0 0.2735 0 0-0.27339 0.2734-0.27339z"
       id="path30" />
    <path
       d="m1442.4 599.4q-8.2021 12.85-20.779 18.591-12.576 5.4681-26.247 9.0223-2.4606 0.54681-5.1947 1.0936-2.734 0.54681-5.468 1.9138-7.6553 3.5542-15.037 3.2808-7.1086-0.54679-12.85-3.8276-5.4681-3.5542-9.0223-9.8425-3.5542-6.5617-3.8276-15.037-0.5468-7.9287 1.9138-16.131 2.734-8.4755 7.1085-16.131 4.6478-7.6553 10.936-13.67 6.5616-6.2883 13.944-9.5691 5.7415-2.4606 12.03-4.3744 6.2883-1.9138 13.397-3.2808-10.936 4.9212-17.224 13.397-6.2883 8.4755-11.483 18.045-5.7415 11.756-4.3745 24.059 0.5469 4.6478 2.4607 9.0223 2.1872 4.101 5.1946 7.6553 3.0074 3.2808 6.5617 5.4681 3.5542 2.1872 7.1085 2.4606 3.5542 0.27339 7.9286-1.6404 4.3745-1.9138 8.2021-4.9212 4.101-3.2808 7.1085-7.1085 3.0074-4.101 4.1011-7.9287 0.8201-3.8276 1.6403-7.3819 0.8203-3.5542 1.0936-7.3819 0.2735-4.6478-0.5467-8.2021-0.5469-3.8276-2.7341-7.3819-1.9138-3.5542-5.468-7.1084-3.5543-3.5542-9.0223-7.6553 3.2808-1.0936 6.5617-2.1872 3.2808-1.367 6.2882-2.4606 3.2809-1.0936 6.5617-1.367 3.2808-0.27339 6.8351 0.54682 7.3818 1.9138 12.03 7.1084 4.6478 5.1947 6.2883 12.303 1.9138 6.8351 0.2733 15.037-1.367 7.9287-6.2882 15.584z"
       id="path32" />
    <path
       d="m1563.5 551.29q-2.1872 5.7415-6.2883 9.8425-3.8276 4.101-9.0223 6.5617-4.9212 2.4606-10.663 3.0074-5.7414 0.54679-11.483-1.367-7.1085-2.734-11.756-4.101-4.6479-1.6404-7.9287-0.82021t-5.7415 4.3744q-2.1872 3.2808-4.9212 10.663-0.2734 1.0936-0.8202 3.8276-3.0074 8.2021-4.1011 16.678-1.0936 8.4755-2.1872 16.951-0.5468 3.2808-4.6478 6.5617-3.8277 3.2808-8.7489 5.7415-4.9213 2.4606-9.8425 3.2808-4.9213 0.82021-7.6553-0.82021-2.734-1.6404-2.4606-4.101 0.5468-2.4606 1.0936-4.6478 3.0074-12.85 6.0149-25.426 3.0074-12.85 6.0148-25.973 2.4607-4.9212 6.0149-7.9287 3.8276-3.0074 7.9287-4.9212 4.3744-1.9138 9.0223-3.2808 4.6478-1.367 9.2956-3.0074 5.1947-0.54679 11.756 0.27342 6.5616 0.82021 11.756 0 3.5542-1.6404 6.5617-3.5542 3.0074-1.9138 6.0148-3.5542 3.0075-1.6404 6.2883-2.4606 3.5542-1.0936 8.2021-0.8202 3.2808 0.27339 6.0148 0.27339 3.0075 0 4.6479 0.54681 1.9138 0.54682 2.4606 2.4606t-0.8202 5.7415z"
       id="path34" />
    <path
       d="m1661.2 589.56q1.9138 1.6404 1.9138 3.2808 0 1.9138-1.367 3.8276-1.0937 1.9138-1.6405 3.8276-1.367 5.1946-3.0074 10.116-1.367 4.6479-3.0074 9.5691-6.0149 22.146-13.397 40.737-7.1085 18.591-16.131 31.988-8.7489 13.67-19.412 21.599-10.389 8.2021-23.239 9.0223-12.576 0.82021-27.614-6.2882-15.037-6.8351-32.808-22.966-0.5469-0.54682-0.8203-1.0936-0.5468-0.2734-1.0936-0.82021-0.2734-3.2808 2.1872-1.9138 2.4607 1.6404 7.1085 5.1946 4.6479 3.5543 11.756 7.3819 6.8351 4.101 15.584 5.7415 6.5617 1.367 15.584 0.54681 9.0222-0.54681 16.951-5.7415 8.7489-5.7415 14.764-15.857 6.0148-10.116 10.389-22.419 4.6478-12.03 8.4755-24.606 4.101-12.303 9.0223-22.692-1.3671-2.1872-4.1011-2.1872h-1.9138q3.5542-2.1872 6.2883-5.1947 3.0074-3.2808 5.468-6.5617 2.734-3.2808 5.7415-6.0148 3.2808-3.0074 7.3818-4.6478 2.1873-0.82021 4.3745-2.4606 2.4606-1.9138 4.6479-1.9138 0.2733 0 1.9138 0.54681zm-66.164 41.01q-2.1872 0.54682-4.1011 0.54682-1.6404 0-3.2808 0-12.03 0-19.685-6.2883-7.3819-6.5617-10.116-19.685 1.6404-12.03 7.9287-23.239 6.5617-11.483 16.131-20.232 9.5692-9.0223 21.326-14.217 12.03-5.468 24.606-5.468 1.6404 0 5.1947 0.54679 3.5542 0.27342 6.835 1.367 3.5543 0.82021 6.2883 2.734 2.734 1.9138 2.734 5.1947 0 0.82021-2.4606 2.734-2.1872 1.6404-5.4681 3.5542-3.2808 1.9138-7.1084 3.5542-3.5543 1.367-6.0149 1.367-2.1872 0-5.7414-1.367-9.8425-4.101-16.404-4.101-4.3744 0-8.2021 2.734-3.5542 2.734-6.2883 7.1085-2.734 4.101-4.3744 9.5691-1.367 5.4681-1.367 10.936 0 9.5691 4.3744 15.584 4.6479 5.7414 13.397 10.389 3.8276 1.0936 9.5691 1.0936 6.0148 0 12.303 1.0936 0 2.4606-3.8277 4.9212-3.5542 2.1872-8.4754 4.3744-4.9213 1.9138-10.116 3.5542-4.9213 1.367-7.6553 1.6404z"
       id="path36" />
    <path
       d="m1749.1 572.61h-2.1872l-9.2958 3.2808q-4.6478 1.6404-9.0222 3.0074-4.1011 1.0936-8.4755 1.0936-0.5468 0.27339-1.0937 0.27339-0.2733-0.27339-1.0936 0 0 0.27342-0.2733 0.54682-0.2734 0.27339-0.5469 0.27339-0.2733 0-0.5468 0.54682-1.6404 1.367-4.101 1.6404-2.1872 0.2734-4.3745 0.82021-2.1872 0.27339-3.8276 1.367-1.6404 0.82021-1.9138 3.5542l-0.8202 1.6404q0 7.9287 2.734 13.123 2.7341 4.9212 6.8351 7.9287 4.3744 2.734 9.2957 3.8276 5.1946 0.82021 9.8425 0.82021h3.8276q0.5468 0 3.5542-0.27339 3.0075-0.2734 6.5617-0.54682 3.5543-0.54679 6.5617-0.82021 3.0074-0.54679 3.5542-0.54679-3.0074 4.3744-9.2957 7.9287-6.0148 3.5542-13.123 6.2883-7.1085 2.4606-14.217 3.8276-7.1085 1.367-12.03 1.367-5.1946 0-10.936-1.367-5.7415-1.6404-10.663-4.6479-4.9213-3.0074-8.2021-7.6553-3.2808-4.6478-3.2808-11.21 0-5.7415 1.9138-12.85 2.1872-7.1084 6.5616-14.49 4.6479-7.6553 11.756-15.037 7.3819-7.6553 18.045-14.217 6.5617-2.734 11.483-4.101 5.1947-1.6404 9.8425-1.9138 4.9213-0.54681 9.2957 0.54679 4.6478 0.82021 9.8425 3.2808 4.6478 2.1872 8.2021 5.4681 3.5542 3.2808 3.2808 8.7489 0 2.734-1.367 4.3744-1.367 1.367-3.5542 2.1872-1.9139 0.54679-4.3745 1.0936-2.1872 0.27339-4.3744 0.8202zm-30.621 7.3819h-0.2734q0.8201-1.9138 1.9138-2.734 1.3669-1.0936 2.734-1.367 1.6404-0.54682 3.2807-0.82021 1.6405-0.2734 3.281-0.82021 5.1946-1.9138 6.0148-5.4681 0.8202-3.5542-1.9138-7.3819-1.9138-3.0074-4.6479-4.9212-11.756-1.9138-17.498 2.734-5.7415 4.6478-7.6553 12.03v3.8276q0.2734 4.101 1.9138 4.9212 1.6404 0.54681 3.5542 0 2.1873-0.54682 4.3745-1.0936 2.1872-0.54682 3.5542 0.54678 0.2735 0 0.5469 0.27342 0.2733 0.2734 0.5468 0.2734l-0.2735 0.27339q0.2735 0 0.2735 0 0-0.27339 0.2734-0.27339z"
       id="path38" />
    <path
       d="m811.37 372.64q-6.8792 10.777-17.427 15.593-10.548 4.5861-22.013 7.5671-2.0638 0.4586-4.3568 0.9172-2.2931 0.45863-4.5861 1.6052-6.4205 2.981-12.612 2.7517-5.9619-0.45861-10.777-3.2103-4.5861-2.981-7.5671-8.255-2.981-5.5033-3.2103-12.612-0.45862-6.6498 1.6051-13.529 2.2931-7.1085 5.962-13.529 3.8982-6.4206 9.1722-11.465 5.5033-5.274 11.695-8.0257 4.8154-2.0638 10.089-3.6689 5.274-1.6052 11.236-2.7517-9.1722 4.1275-14.446 11.236-5.274 7.1085-9.6308 15.134-4.8154 9.8602-3.6689 20.179 0.4586 3.8982 2.0638 7.5671 1.8344 3.4396 4.3568 6.4206 2.5224 2.7517 5.5033 4.5861 2.981 1.8345 5.9619 2.0638 2.981 0.22931 6.6498-1.3758 3.6689-1.6051 6.8792-4.1275 3.4396-2.7517 5.962-5.9619 2.5224-3.4396 3.4396-6.6498 0.68791-3.2103 1.3758-6.1912 0.68792-2.981 0.9172-6.1913 0.22932-3.8982-0.4586-6.8792-0.4586-3.2103-2.2931-6.1912-1.6051-2.981-4.5861-5.9619-2.981-2.981-7.5671-6.4206 2.7517-0.9172 5.5033-1.8344 2.7517-1.1465 5.274-2.0638 2.7517-0.91723 5.5033-1.1465 2.7517-0.22931 5.7326 0.4586 6.1912 1.6052 10.089 5.9619 3.8982 4.3568 5.274 10.319 1.6051 5.7326 0.22931 12.612-1.1466 6.6499-5.274 13.07z"
       id="path40" />
    <path
       d="m883.08 262.35q3.4396-0.45862 4.8154 0.2293 1.6052 0.45861 1.6052 1.3758t-1.6052 2.0638q-1.6051 0.9172-4.3568 1.6051-4.8154 0.45863-8.7136 7.3378-3.6689 6.6498-6.4206 15.822-2.7517 9.1722-4.5861 18.803-1.6052 9.6308-2.2931 15.822-0.22928 3.8982 1.8345 3.6689 2.293-0.22928 4.5861-0.68791 2.0638-0.68792 4.5861-1.3758 2.7517-0.68792 5.274-1.1465 2.5224-0.45861 4.8154-0.68792 2.5224-0.22932 3.8982 0-3.6689 5.274-9.1722 7.5671-5.274 2.0638-9.1722 3.6689-2.981 1.1465-4.8154 1.8344-1.6052 0.68791-2.7517 1.8344-0.91723 0.91723-1.6052 2.7517-0.4586 1.6052-0.91723 4.5861-3.8982 24.994-10.777 48.842-6.6498 23.618-16.051 47.237-7.3378 19.262-19.262 34.396-12.153 15.363-30.727 25.682-1.8345 0.4586-3.2103 1.1465-1.6051 0.91723-3.4396 1.6051-0.4586 0.45861-1.1465 0.68792-0.68792 0.22929-1.3758 0.68792-0.91723 0.4586-1.6052 0.9172-2.5224-0.68792-2.5224-1.8344 0-0.91724 1.1465-2.0638 0.91723-0.91724 2.2931-1.8344 1.1465-0.68792 1.6052-1.1466 11.236-9.1722 19.491-20.179 8.0257-10.777 13.988-22.931 5.7326-11.924 9.6308-24.994 3.6689-13.07 6.4206-26.829 4.1275-14.446 6.4206-27.058 2.293-12.612 4.8154-25.682 0.22929-1.1465 0.9172-4.8154 0.68792-3.6689 1.3758-8.0257 0.68791-4.3568 1.3758-8.4843 0.68792-4.3568 1.1466-6.8792 1.1465-8.0257 2.981-15.822 2.0638-7.7964 4.5861-15.363 1.6051-5.274 4.3568-10.319 2.981-5.0447 6.6499-9.1722 3.8982-4.3568 8.4843-7.1084 4.5861-2.981 9.8602-4.1275 2.5224-0.45861 4.3568-0.91722 1.8344-0.68791 3.2103-0.68791z"
       id="path42" />
  </g>
</svg>
